<?xml version="1.0" encoding="UTF-8"?>
<svg id="Logga" xmlns="http://www.w3.org/2000/svg" version="1.1" viewBox="0 0 581.7 792">
  <defs>
    <style>
      .cls-1 {
        fill: #fff;
        stroke-width: 0px;
      }
    </style>
  </defs>
  <path class="cls-1" d="M290.27,790.75l-1.76-14.27c-.58-4.68-6.99-233.31-7.65-256.94-16.92-1.56-33.02-6.47-47.9-14.62-4.92,6.56-12.6,16.89-21.31,28.59-24,32.27-53.86,72.43-58.31,77.31l-7.58,8.31,4.56-10.28c2.62-5.9,27.93-48.96,48.27-83.56,7.47-12.7,13.98-23.77,18.16-30.97-13.73-10.57-25.28-24.11-33.53-39.32-9.58,4-25.57,10.71-43.98,18.42-49.44,20.73-117.16,49.12-122.73,51.21l-16.53,6.21,14.91-9.46c4.98-3.16,70.36-37.02,118.1-61.74,17.81-9.22,33.28-17.23,42.48-22.03-1.82-5.1-3.3-10.35-4.43-15.63-.31-1.43.05-2.91.97-4.05.91-1.13,2.27-1.78,3.73-1.78h233.38c1.45,0,2.81.65,3.73,1.78.92,1.14,1.27,2.61.97,4.04-1.11,5.21-2.58,10.39-4.36,15.43,8.91,4.65,24.47,12.72,42.51,22.08,48.11,24.96,113.99,59.14,118.46,61.9l11.8,7.3-13.29-4.01c-5.09-1.53-75.49-31.21-126.88-52.88-17.07-7.2-31.66-13.35-40.33-16.98-8.27,15.28-19.84,28.87-33.6,39.48,4.25,7.31,10.86,18.5,18.44,31.34,19.91,33.72,44.7,75.68,47.98,83.2l4.37,10.01-7.39-8.05c-5.68-6.19-34.99-45.75-58.54-77.54-8.64-11.66-16.17-21.83-21.08-28.37-15.04,8.25-31.34,13.17-48.49,14.67-1,23.52-10.7,252.24-11.31,256.9l-1.86,14.26ZM231.96,500.18l1.39.79c15.28,8.62,31.9,13.69,49.43,15.08l1.63.13.05,1.64c1.68,60.1,4.45,157.48,6.17,213.93,2.52-56.44,6.68-153.81,9.23-213.92l.07-1.62,1.62-.12c17.74-1.32,34.56-6.4,49.99-15.11l1.39-.79.96,1.28c4.86,6.46,12.82,17.21,22.04,29.66,14.5,19.57,32.49,43.85,44.81,60.08-10-17.45-25.11-43.03-37.3-63.68-8.08-13.68-15.06-25.5-19.26-32.75l-.81-1.4,1.3-.97c14.35-10.75,26.33-24.83,34.64-40.71l.77-1.48,1.54.65c8.41,3.52,23.75,9.98,41.87,17.62,28.79,12.14,66.34,27.97,93.08,39.11-24.38-12.73-58.32-30.34-86.27-44.84-19.04-9.88-35.31-18.32-43.92-22.82l-1.42-.74.55-1.5c1.97-5.35,3.58-10.88,4.76-16.44.1-.48-.1-.83-.24-.99-.13-.16-.42-.43-.89-.43h-233.38c-.48,0-.76.27-.89.43-.13.16-.34.51-.24.99,1.2,5.63,2.83,11.23,4.84,16.63l.56,1.51-1.42.74c-8.98,4.69-25.15,13.06-43.91,22.77-27.33,14.15-60.45,31.31-84.66,43.95,25.18-10.51,59.5-24.9,87.82-36.77,19.42-8.14,36.17-15.16,45.51-19.07l1.54-.64.78,1.48c8.3,15.81,20.25,29.84,34.57,40.55l1.3.97-.81,1.4c-4.13,7.12-11.01,18.82-18.98,32.38-11.88,20.2-26.46,45.02-36.48,62.38,12.14-16.07,29.41-39.29,43.46-58.19,9.29-12.49,17.42-23.43,22.27-29.88l.96-1.28Z"/>
  <path class="cls-1" d="M408.51,372.87h-232.1c-1.48,0-2.85-.67-3.77-1.83-.92-1.17-1.25-2.67-.9-4.12,1.05-4.38,2.35-8.73,3.87-12.95-8.51-4.44-23.21-12.06-40.38-20.96-48.64-25.22-115.25-59.77-120.43-62.93l-14.28-8.73,15.82,5.45c5.67,1.95,75.63,31.37,126.72,52.84,17.13,7.2,31.74,13.35,40.34,16.94,8.25-15.12,19.76-28.58,33.44-39.09-4.21-7.25-10.9-18.68-18.45-31.56-20.3-34.68-45.57-77.83-47.91-82.84l-5.48-11.73,8.51,9.76c3.74,4.29,33.9,44.7,58.13,77.17,8.79,11.77,16.53,22.14,21.41,28.65,14.85-8.11,30.9-13.01,47.75-14.56l.89-29.8c.25-9.08,6.1-222.45,6.78-228.08l1.59-13.25,2.02,13.19c.87,5.65,4.98,112.54,5.16,117.09l6.19,140.79c17.19,1.49,33.52,6.44,48.61,14.73,4.9-6.53,12.45-16.69,21.11-28.34,23.4-31.47,52.51-70.64,58.52-77.58l9.26-10.7-6.25,12.7c-3.99,8.12-28.95,50.61-49.01,84.75-7.1,12.08-13.37,22.75-17.44,29.75,13.63,10.52,25.09,23.96,33.29,39.01,8.53-3.57,23-9.65,39.96-16.79,51.29-21.57,121.54-51.12,127.26-53.05l12.97-4.37-11.37,7.61c-4.86,3.26-71.67,37.79-120.45,63-17.25,8.92-32.03,16.56-40.56,21,1.52,4.24,2.81,8.57,3.85,12.89.35,1.44.02,2.94-.9,4.1-.91,1.16-2.28,1.82-3.75,1.82ZM49.48,284.34c25.35,13.24,60.45,31.44,87.43,45.43,18.17,9.42,33.58,17.41,41.81,21.71l1.43.75-.57,1.51c-1.71,4.55-3.16,9.28-4.3,14.03-.08.36,0,.73.22,1.01.13.16.42.44.9.44h232.1c.48,0,.77-.27.89-.43.22-.28.3-.65.22-1-1.12-4.69-2.56-9.4-4.27-13.98l-.56-1.51,1.43-.74c8.25-4.3,23.74-12.31,41.99-21.74,27.58-14.26,63.63-32.89,89.06-46.19-26.93,11.22-65.17,27.31-94.38,39.6-18.02,7.58-33.23,13.98-41.49,17.43l-1.54.64-.78-1.48c-8.25-15.65-20.12-29.57-34.33-40.25l-1.3-.97.81-1.4c4.03-6.94,10.67-18.24,18.26-31.16,11.98-20.4,26.76-45.56,37.01-63.34-12.29,16.25-29.5,39.41-43.47,58.18-9.25,12.44-17.23,23.18-22.08,29.63l-.96,1.28-1.39-.79c-15.47-8.75-32.32-13.86-50.1-15.17l-1.62-.12-.07-1.62-6.26-142.41c-.77-20.02-1.94-49.64-2.99-74.05-1.53,50.29-3.86,133.4-5.28,185.06l-.98,33.06-1.63.13c-17.45,1.39-34.03,6.44-49.28,15.02l-1.39.78-.96-1.28c-4.79-6.37-12.99-17.35-22.37-29.93-13.61-18.23-30.2-40.46-42.2-56.39,9.88,17.07,23.68,40.65,35.02,60.01,8.05,13.75,15.13,25.84,19.26,32.97l.81,1.4-1.3.97c-14.26,10.66-26.19,24.61-34.48,40.32l-.78,1.47-1.54-.64c-8.33-3.48-23.69-9.94-41.88-17.58-28.44-11.96-65.47-27.53-92.17-38.66Z"/>
  <g id="Right_6" data-name="Right 6">
    <path class="cls-1" d="M383.73,647.65c-4.37,0-15.35-1.85-24.34-9.14-7-5.68-11.26-13.35-12.66-22.81-2.1-14.16-6.87-23.72-14.57-29.22-12.88-9.21-18.18-16.49-17.69-37.75.21-9.23-1.49-15.14-2.51-18.68-.62-2.17-.94-3.25-.43-4.03.15-.24.45-.54,1-.61h0c9.27-1.34,18.43-3.75,27.21-7.14,4.77-1.83,8.09-3.46,9.64-4.27,1.06-.54,2.35-.19,3,.8,1.68,2.61,4.12,8.97,1.74,22.24-.54,3.02-1.08,5.55-1.56,7.78-2.41,11.33-2.84,13.37,7.93,23.65,9.73,9.3,7.18,19.21,4.93,27.95-.98,3.8-1.91,7.4-1.94,10.89v.23c-.11,10.25,2.59,28.81,21.93,37.97.62.29.72.75.72,1v.58s-.62.35-.62.35c-.26.13-.89.21-1.79.21ZM313.1,527.17c.06.49.33,1.45.6,2.38.97,3.4,2.79,9.72,2.58,19.22-.47,20.43,4.61,27.41,16.93,36.22,8.13,5.81,13.14,15.76,15.32,30.44,1.33,9,5.37,16.28,12,21.66,7.72,6.26,16.85,8.27,21.42,8.69-13.3-7.47-20.49-20.93-20.3-38.25v-.22c.04-3.72,1.03-7.59,2-11.33,2.23-8.66,4.53-17.62-4.42-26.18-11.51-10.99-10.87-14.03-8.46-25.35.47-2.22,1.01-4.74,1.54-7.73,2.27-12.66.05-18.54-1.47-20.93-.14-.21-.41-.3-.64-.18-1.58.82-4.97,2.49-9.82,4.35-8.81,3.41-17.99,5.83-27.28,7.2Z"/>
  </g>
  <g id="Right_5" data-name="Right 5">
    <path class="cls-1" d="M461.01,542.52c-1.01,0-2.03-.05-3.05-.17-6.66-.74-12.4-3.84-17.07-9.19-6.89-7.89-13.59-11.9-20.48-12.25-11.73-.6-17.96-3.02-26.17-16.49-3.52-5.77-6.91-8.75-8.93-10.53-1.3-1.14-1.95-1.72-1.95-2.51,0-.37.16-.71.46-.96h0c5.2-4.51,9.92-9.62,14-15.2,2.24-3.04,3.63-5.35,4.26-6.46.5-.86,1.57-1.2,2.49-.8,2.11.97,6.21,3.98,10.04,13.23.86,2.09,1.54,3.89,2.13,5.45,2.97,7.88,3.5,9.3,14.14,11.37,9.87,1.92,12.25,9.15,14.35,15.53.9,2.73,1.75,5.32,3.11,7.47l.09.14c3.97,6.35,12.93,16.71,28.46,14.72.64-.09.97.28,1.07.44l.31.48-.32.59c-.77,1.25-8.28,5.12-16.93,5.12ZM385.37,491.48c.27.28.72.67,1.14,1.04,1.97,1.73,5.62,4.94,9.29,10.95,8.14,13.36,14.05,15.08,24.71,15.62,7.41.38,14.53,4.59,21.76,12.87,4.36,5,9.71,7.89,15.9,8.58,6.43.72,12.27-1.11,15.56-2.6-10.84.23-20.26-5.3-26.84-15.82l-.08-.14c-1.47-2.34-2.4-5.16-3.29-7.87-2.13-6.48-4.15-12.59-12.96-14.31-11.64-2.26-12.46-4.43-15.5-12.51-.59-1.55-1.26-3.33-2.11-5.4-3.6-8.68-7.25-11.41-9.11-12.26-.04-.02-.12-.02-.16.05-.65,1.13-2.09,3.51-4.38,6.62-4.07,5.56-8.75,10.67-13.91,15.18ZM385,491.8h0s0,0,0,0Z"/>
  </g>
  <g id="Right_4" data-name="Right 4">
    <path class="cls-1" d="M464.12,444.31c-2.13,0-4.28-.46-6.43-1.38-5.45-2.33-9.83-2.74-13.4-1.23-6.25,2.63-10.35,2.96-18.08-2.04-3.22-2.09-5.69-2.77-7.17-3.19-1.04-.29-1.61-.45-1.88-1.02-.14-.29-.14-.62,0-.93,1.56-3.61,2.72-7.42,3.44-11.32.4-2.11.54-3.65.59-4.38.06-.78.69-1.37,1.46-1.4.03,0,.07,0,.1,0,1.72,0,4.59.79,8.7,4.45.97.87,1.78,1.64,2.48,2.31,3.46,3.3,3.98,3.8,9.82,2.27,5.81-1.53,8.95,1.72,11.71,4.58,1.14,1.18,2.21,2.29,3.41,3.04,3.66,2.31,10.76,5.37,18.13.57l.48-.31.6.27.49.3-.04.63c-.11,1.02-3.74,5.91-9.39,7.9-1.65.58-3.33.87-5.02.87ZM448.89,438.98c2.83,0,5.98.76,9.52,2.27,3.42,1.47,6.83,1.62,10.12.47,2.51-.88,4.55-2.4,5.97-3.75-5.23,1.97-10.97,1.2-16.51-2.29-1.47-.92-2.67-2.17-3.83-3.37-2.65-2.75-5.15-5.34-9.94-4.08-6.57,1.73-7.72.93-11.54-2.71-.69-.66-1.48-1.41-2.44-2.27-3.72-3.32-6.16-3.91-7.25-3.98-.07.84-.23,2.33-.6,4.28-.7,3.8-1.81,7.51-3.28,11.05.14.04.29.08.43.12,1.47.41,4.21,1.17,7.67,3.41,7.41,4.8,10.83,4.23,16.38,1.89,1.63-.69,3.39-1.03,5.3-1.03ZM418.83,435.24h0s0,0,0,0Z"/>
  </g>
  <g id="Right_3" data-name="Right 3">
    <path class="cls-1" d="M423.02,373.45c-.3,0-.55-.07-.78-.24-.26-.19-.42-.49-.44-.82-.31-3.92-1.08-7.82-2.27-11.61-.64-2.05-1.23-3.48-1.53-4.14-.31-.71-.03-1.53.64-1.92,1.23-.68,4.13-1.6,9.86-.19,1.27.31,2.34.61,3.27.87,4.6,1.29,5.31,1.49,9.74-2.6,4.43-4.08,8.71-2.68,12.49-1.45,1.55.51,3.02.99,4.44,1.09,4.33.31,12.02-.3,16.28-7.99l.28-.5.65-.04.58.04.26.58c.38.95-.53,6.98-4.59,11.38-2.69,2.91-6.17,4.57-10.35,4.92-5.91.5-9.97,2.2-12.41,5.19-4.29,5.26-7.74,7.47-16.92,6.67-3.82-.33-6.33.22-7.82.55-.58.13-1.01.22-1.37.22ZM419.79,356.19c.33.78.89,2.17,1.48,4.06,1.16,3.69,1.93,7.48,2.28,11.3.14-.03.3-.06.44-.1,1.49-.33,4.27-.94,8.37-.58,8.8.77,11.55-1.35,15.35-6.01,2.78-3.4,7.25-5.32,13.67-5.86,3.71-.31,6.79-1.77,9.16-4.33,1.8-1.95,2.89-4.25,3.51-6.12-3.69,4.19-9.12,6.2-15.66,5.72-1.73-.13-3.38-.66-4.97-1.18-3.63-1.19-7.05-2.3-10.69,1.05-4.99,4.6-6.38,4.44-11.47,3.02-.92-.26-1.97-.55-3.22-.86-4.85-1.19-7.28-.57-8.27-.12Z"/>
  </g>
  <g id="Right_2" data-name="Right 2">
    <path class="cls-1" d="M402.81,324.28c-.09,0-.18,0-.26-.03-.36-.07-.66-.29-.85-.63h0c-3.43-5.96-7.56-11.56-12.26-16.64-2.56-2.78-4.56-4.59-5.53-5.41-.75-.66-.88-1.77-.31-2.59,1.36-1.89,5.09-5.34,14.9-7.35,2.21-.45,4.11-.78,5.76-1.06,8.3-1.42,9.79-1.67,13.85-11.72,3.77-9.32,11.32-10.28,17.98-11.13,2.85-.36,5.55-.71,7.93-1.63l.15-.06c6.99-2.69,18.87-9.54,19.86-25.14.04-.66.46-.9.64-.97l.53-.22.52.43c1.2,1.11,4.03,11.07,1.07,20.56-1.99,6.4-6.12,11.45-12.27,15.01-9.06,5.26-14.26,11.08-15.92,17.78-2.82,11.41-6.38,17.06-21.17,22.56-6.34,2.36-9.91,5.12-12.04,6.77-1.21.94-1.89,1.46-2.57,1.46ZM465.44,244.4c-1.83,10.67-9.05,18.88-20.63,23.34l-.15.06c-2.58,1-5.52,1.37-8.36,1.74-6.76.86-13.15,1.68-16.52,10-4.43,10.99-6.72,11.39-15.23,12.84-1.63.28-3.51.6-5.7,1.05-9.2,1.88-12.58,4.95-13.77,6.61-.03.04-.04.12.02.17.99.85,3.05,2.71,5.67,5.55,4.68,5.05,8.81,10.62,12.26,16.54.32-.21.8-.58,1.24-.92,2.07-1.6,5.92-4.58,12.52-7.03,14.66-5.45,17.47-10.93,20.03-21.28,1.78-7.21,7.27-13.4,16.77-18.92,5.74-3.33,9.59-8.03,11.45-13.98,1.93-6.18,1.24-12.26.4-15.76Z"/>
  </g>
  <g id="Right_1" data-name="Right 1">
    <path class="cls-1" d="M349.27,278.16c-.2,0-.42-.04-.67-.17-8.35-4.24-17.22-7.54-26.36-9.82-4.98-1.26-8.62-1.83-10.34-2.05-1.18-.17-2.03-1.19-1.99-2.39.14-3.11,1.8-9.71,11.38-19.19,2.18-2.16,4.08-3.92,5.75-5.47,8.49-7.88,10.02-9.3,7.12-23.91-2.61-13.2,5.18-19.84,12.05-25.69,2.99-2.55,5.81-4.95,7.85-7.8l.13-.18c5.99-8.32,14.46-25.06,3.91-43.67-.34-.6-.16-1.03-.01-1.23l.33-.47.71.07c1.69.28,12.42,8.92,16.23,22.34,2.46,8.67,1.53,17.4-2.77,25.94-6.43,12.79-8.03,23.35-4.9,32.28,5.23,14.94,5.38,23.95-7.25,41.05-5.48,7.42-7.5,13.24-8.7,16.72-.74,2.13-1.11,3.2-1.97,3.54-.13.05-.3.1-.5.1ZM361.08,139.58c6.59,13.76,4.71,28.91-5.41,42.97l-.13.18c-2.17,3.02-5.21,5.61-8.15,8.12-6.81,5.8-13.85,11.8-11.45,23.95,3.09,15.61.81,17.73-7.67,25.6-1.67,1.54-3.55,3.3-5.71,5.43-9.14,9.05-10.71,15.14-10.84,17.96,0,.26.17.48.42.51,1.75.23,5.47.81,10.53,2.09,9.17,2.28,18.07,5.59,26.46,9.81.23-.43.56-1.38.88-2.3,1.16-3.34,3.31-9.56,8.96-17.2,12.14-16.44,12.01-25.07,6.99-39.37-3.3-9.42-1.67-20.45,4.99-33.7,4.09-8.12,4.98-16.41,2.65-24.62-2.71-9.56-9.02-16.46-12.52-19.44Z"/>
  </g>
  <g id="Left_6" data-name="Left 6">
    <path class="cls-1" d="M226.48,655.79l-.71-.07c-1.69-.28-12.42-8.91-16.23-22.34-2.46-8.67-1.53-17.4,2.77-25.94,6.43-12.79,8.03-23.35,4.9-32.28-5.23-14.94-5.38-23.95,7.25-41.05,5.48-7.42,7.5-13.24,8.7-16.72.74-2.13,1.11-3.2,1.97-3.54.26-.11.68-.18,1.17.07,8.35,4.24,17.22,7.54,26.36,9.82,4.97,1.25,8.61,1.82,10.34,2.05,1.18.17,2.03,1.19,2,2.39-.14,3.11-1.79,9.71-11.38,19.19-2.18,2.16-4.08,3.92-5.75,5.47-8.49,7.88-10.02,9.3-7.12,23.91,2.61,13.2-5.18,19.84-12.05,25.69-2.99,2.55-5.81,4.95-7.85,7.8l-.13.18c-5.99,8.32-14.46,25.06-3.91,43.67.34.6.16,1.03.01,1.23l-.33.47ZM235.76,515.68c-.23.43-.56,1.38-.88,2.29-1.16,3.34-3.31,9.56-8.96,17.21-12.14,16.44-12.01,25.07-7,39.37,3.3,9.42,1.67,20.45-4.99,33.7-4.09,8.12-4.98,16.41-2.65,24.62,2.71,9.56,9.02,16.46,12.52,19.44-6.59-13.76-4.71-28.91,5.41-42.96l.13-.18c2.17-3.02,5.21-5.61,8.15-8.12,6.81-5.8,13.85-11.8,11.45-23.95-3.09-15.61-.81-17.73,7.67-25.6,1.66-1.55,3.55-3.3,5.71-5.43,9.14-9.05,10.71-15.14,10.84-17.96,0-.26-.17-.48-.42-.52-1.76-.23-5.48-.82-10.54-2.09-9.16-2.28-18.06-5.59-26.45-9.81ZM235.46,515.54s0,0,0,0h0Z"/>
  </g>
  <g id="Left_5" data-name="Left 5">
    <path class="cls-1" d="M119.7,552.19l-.52-.43c-1.2-1.11-4.03-11.07-1.07-20.56,2-6.4,6.12-11.45,12.27-15.01,9.06-5.26,14.27-11.08,15.92-17.78,2.82-11.41,6.38-17.06,21.16-22.56,6.34-2.36,9.91-5.12,12.04-6.76,1.37-1.06,2.06-1.6,2.83-1.44.36.07.66.3.85.63,3.43,5.96,7.56,11.56,12.26,16.64,2.55,2.76,4.56,4.58,5.53,5.42.75.66.88,1.77.31,2.59-1.36,1.89-5.09,5.34-14.9,7.34-2.21.45-4.11.78-5.76,1.06-8.3,1.42-9.79,1.67-13.85,11.72-3.76,9.32-11.32,10.28-17.98,11.13-2.86.36-5.55.71-7.93,1.63l-.16.06c-6.99,2.7-18.87,9.55-19.86,25.14-.04.66-.46.9-.64.97l-.53.22ZM181.86,469.61c-.32.21-.8.58-1.24.92-2.07,1.6-5.92,4.58-12.52,7.03-14.66,5.45-17.47,10.93-20.03,21.28-1.78,7.21-7.26,13.4-16.77,18.92-5.74,3.33-9.59,8.03-11.45,13.98-1.93,6.18-1.24,12.26-.4,15.76,1.83-10.66,9.05-18.88,20.63-23.34l.15-.06c2.58-1,5.52-1.37,8.35-1.74,6.77-.86,13.16-1.68,16.52-10,4.44-10.99,6.72-11.38,15.23-12.84,1.63-.28,3.51-.6,5.7-1.05,9.2-1.88,12.58-4.95,13.77-6.61.04-.05.03-.12-.02-.17-1-.86-3.06-2.73-5.67-5.55-4.68-5.05-8.81-10.62-12.26-16.54Z"/>
  </g>
  <g id="Left_4" data-name="Left 4">
    <path class="cls-1" d="M109.24,447.99l-.58-.04-.26-.58c-.38-.95.53-6.98,4.59-11.38,2.69-2.91,6.17-4.57,10.35-4.92,5.91-.5,9.97-2.19,12.41-5.19,4.29-5.26,7.74-7.47,16.92-6.67,3.82.33,6.33-.22,7.83-.55,1.05-.23,1.64-.36,2.14.02.26.19.42.48.44.82.31,3.92,1.08,7.83,2.27,11.61.64,2.05,1.23,3.48,1.53,4.14.31.71.03,1.54-.64,1.92-1.5.83-4.41,1.53-9.86.19-1.27-.31-2.34-.61-3.27-.87-4.6-1.29-5.31-1.49-9.74,2.6-4.43,4.08-8.71,2.68-12.49,1.45-1.55-.51-3.02-.99-4.44-1.09-4.31-.32-12.02.3-16.28,7.99l-.28.5-.65.04ZM149.3,420.88c-6.33,0-8.84,2.12-12.13,6.16-2.77,3.4-7.25,5.32-13.67,5.86-3.71.31-6.79,1.77-9.16,4.33-1.8,1.95-2.89,4.25-3.51,6.12,3.69-4.2,9.12-6.21,15.66-5.72,1.73.13,3.38.66,4.97,1.18,3.62,1.18,7.05,2.3,10.69-1.05,4.99-4.61,6.38-4.44,11.47-3.02.92.26,1.97.55,3.22.86,4.84,1.19,7.28.57,8.27.12-.33-.78-.89-2.17-1.48-4.06-1.16-3.68-1.93-7.48-2.28-11.3-.14.03-.29.06-.44.1-1.49.33-4.28.94-8.37.58-1.18-.1-2.25-.15-3.23-.15ZM161.28,419.65h0s0,0,0,0Z"/>
  </g>
  <g id="Left_3" data-name="Left 3">
    <path class="cls-1" d="M162.14,374.47c-1.44,0-4.39-.6-8.7-4.45-.97-.87-1.78-1.64-2.48-2.31-3.46-3.29-3.99-3.8-9.82-2.27-5.82,1.53-8.95-1.72-11.71-4.58-1.13-1.18-2.21-2.29-3.41-3.04-3.66-2.31-10.76-5.37-18.13-.57l-.48.31-1.09-.57.04-.63c.11-1.02,3.74-5.91,9.39-7.9,3.74-1.31,7.59-1.14,11.45.51,5.45,2.33,9.83,2.73,13.4,1.23,6.25-2.63,10.34-2.96,18.08,2.04,3.22,2.09,5.69,2.77,7.17,3.19,1.04.29,1.61.45,1.88,1.02.14.29.14.62,0,.93-1.56,3.62-2.72,7.42-3.44,11.32-.4,2.12-.54,3.65-.59,4.38-.06.78-.69,1.37-1.47,1.4-.03,0-.06,0-.09,0ZM145.75,362.81c2.56,0,3.92,1.16,6.46,3.58.69.66,1.48,1.41,2.44,2.27,3.72,3.32,6.16,3.92,7.25,3.98.07-.84.23-2.33.6-4.28.7-3.79,1.8-7.51,3.28-11.06-.14-.04-.29-.08-.43-.12-1.47-.41-4.21-1.18-7.67-3.41-7.41-4.8-10.84-4.23-16.38-1.89-4.05,1.7-8.9,1.3-14.82-1.24-3.42-1.47-6.83-1.62-10.12-.47-2.51.88-4.55,2.4-5.97,3.76,5.23-1.97,10.97-1.2,16.51,2.29,1.47.92,2.67,2.17,3.83,3.37,2.65,2.75,5.15,5.34,9.94,4.08,2.2-.58,3.79-.87,5.08-.87ZM166.06,356.66s0,0,0,0h0Z"/>
  </g>
  <g id="Left_2" data-name="Left 2">
    <path class="cls-1" d="M181.13,324.11c-.27,0-.54-.06-.8-.17-2.11-.97-6.21-3.98-10.04-13.23-.86-2.09-1.54-3.89-2.13-5.45-2.97-7.88-3.5-9.3-14.14-11.36-9.87-1.92-12.25-9.15-14.35-15.53-.9-2.73-1.75-5.32-3.11-7.47l-.09-.14c-3.98-6.35-12.95-16.71-28.46-14.72-.66.08-.97-.28-1.07-.44l-.31-.48.32-.59c.86-1.39,10.11-6.06,19.99-4.96,6.66.74,12.4,3.84,17.07,9.19,6.89,7.89,13.59,11.9,20.48,12.25,11.73.6,17.96,3.02,26.17,16.49,3.52,5.77,6.91,8.75,8.93,10.53,1.3,1.14,1.95,1.72,1.95,2.51,0,.37-.16.71-.46.96-5.2,4.5-9.91,9.62-14,15.2-2.24,3.03-3.63,5.35-4.27,6.46-.36.62-1.01.97-1.69.97ZM111.82,253.95c10.55,0,19.75,5.51,26.19,15.82l.09.14c1.47,2.34,2.4,5.15,3.29,7.87,2.13,6.48,4.15,12.6,12.96,14.32,11.64,2.26,12.46,4.43,15.5,12.51.58,1.55,1.26,3.33,2.11,5.4,3.59,8.68,7.25,11.41,9.11,12.26.04.02.12.02.16-.05.65-1.14,2.09-3.52,4.37-6.62,4.07-5.56,8.75-10.67,13.91-15.18-.27-.28-.72-.67-1.14-1.04-1.97-1.73-5.62-4.94-9.29-10.95-8.14-13.36-14.05-15.08-24.71-15.62-7.42-.37-14.53-4.58-21.76-12.87-4.36-5-9.71-7.89-15.9-8.58-6.43-.72-12.27,1.11-15.55,2.6.21,0,.43,0,.64,0Z"/>
  </g>
  <g id="Left_1" data-name="Left 1">
    <path class="cls-1" d="M234.47,278.15c-.76,0-1.51-.38-1.95-1.06-1.67-2.62-4.12-8.97-1.74-22.24.54-3.02,1.08-5.55,1.55-7.78,2.41-11.33,2.84-13.37-7.93-23.65-9.73-9.29-7.18-19.2-4.93-27.95.98-3.8,1.9-7.4,1.94-10.9v-.22c.11-10.25-2.59-28.81-21.93-37.97-.62-.29-.72-.75-.72-1v-.58s.62-.35.62-.35c1.55-.74,15.28.14,26.13,8.93,7,5.68,11.26,13.35,12.66,22.81,2.1,14.16,6.87,23.72,14.57,29.22,12.88,9.21,18.18,16.49,17.69,37.75-.21,9.23,1.49,15.15,2.51,18.68.62,2.16.93,3.25.43,4.03-.15.24-.45.54-1,.61-9.27,1.34-18.42,3.74-27.21,7.14-4.8,1.84-8.1,3.46-9.64,4.27-.34.17-.7.25-1.05.25ZM202.93,146.11c13.31,7.47,20.49,20.93,20.3,38.26v.22c-.04,3.72-1.03,7.59-2,11.33-2.23,8.66-4.53,17.62,4.42,26.17,11.51,10.99,10.87,14.03,8.46,25.35-.47,2.22-1.01,4.74-1.54,7.73-2.27,12.66-.05,18.55,1.47,20.93.14.22.42.29.64.18,1.57-.82,4.94-2.48,9.82-4.35,8.81-3.41,17.99-5.83,27.28-7.2-.06-.49-.33-1.45-.6-2.38-.98-3.4-2.79-9.72-2.58-19.23.47-20.43-4.61-27.41-16.93-36.22-8.13-5.8-13.14-15.76-15.32-30.43-1.33-8.99-5.37-16.28-12-21.66-7.72-6.25-16.85-8.27-21.42-8.69Z"/>
  </g>
  <g id="A">
    <path class="cls-1" d="M312.65,526.32c11.25-1.63,20.72-4.6,27.41-7.19,1,3.5,1.52,9.1-.04,17.76-3.3,18.41-6.67,19.55,6.65,32.26,13.32,12.72,2.82,26.09,2.71,38.17-.02,3.12-.45,18.65,10.58,30.48-5.83-4.73-10.79-11.8-12.33-22.23-2.73-18.39-9.45-25.9-14.94-29.83-12.32-8.81-17.8-15.77-17.31-36.98.35-15.52-4.71-22.16-2.72-22.44Z"/>
  </g>
  <g id="A-2" data-name="A">
    <path class="cls-1" d="M235.88,514.72c10.14,5.14,19.59,8.15,26.56,9.89-1.2,3.44-3.99,8.32-10.25,14.51-13.3,13.15-16.7,12.15-13.13,30.21,3.57,18.07-12.71,22.96-19.75,32.78-1.82,2.54-11.1,14.99-8.89,31.02-2.05-7.22-2.03-15.86,2.71-25.28,8.35-16.62,7.18-26.62,4.94-32.99-5.01-14.29-5.48-23.14,7.12-40.21,9.22-12.49,8.9-20.84,10.69-19.92Z"/>
  </g>
  <g id="A-3" data-name="A">
    <path class="cls-1" d="M349.01,277.18c-10.14-5.14-19.59-8.15-26.56-9.89,1.2-3.44,3.99-8.32,10.25-14.51,13.3-13.15,16.7-12.15,13.13-30.21-3.57-18.07,12.71-22.96,19.75-32.78,1.82-2.54,11.1-14.99,8.89-31.02,2.05,7.22,2.03,15.86-2.71,25.28-8.35,16.62-7.18,26.62-4.94,32.99,5.01,14.29,5.48,23.14-7.12,40.21-9.22,12.49-8.9,20.84-10.69,19.92Z"/>
  </g>
  <g id="A-4" data-name="A">
    <path class="cls-1" d="M384.41,491.11c6.33-5.48,11.02-11.09,14.14-15.36,2.01,1.77,4.56,5.04,7.04,11.03,5.27,12.73,3.63,14.77,16.94,17.36,13.31,2.6,12.12,15.06,16.85,22.6,1.23,1.95,7.13,11.74,18.68,14.7-5.5-.61-11.38-3.03-16.49-8.89-9.01-10.32-16.16-12.31-21.12-12.56-11.14-.57-17.31-2.71-25.44-16.05-5.95-9.76-11.73-11.87-10.61-12.83Z"/>
  </g>
  <g id="A-5" data-name="A">
    <path class="cls-1" d="M182.41,468.73c4.18,7.26,8.79,12.92,12.39,16.8-2.12,1.63-5.81,3.52-12.17,4.81-13.5,2.75-15.2.76-20.27,13.33-5.08,12.58-17.09,9.03-25.39,12.25-2.14.83-12.89,4.77-17.98,15.54,1.65-5.28,5.14-10.6,11.86-14.49,11.85-6.88,15.15-13.52,16.35-18.35,2.67-10.83,5.95-16.48,20.6-21.92,10.72-3.98,13.88-9.26,14.62-7.97Z"/>
  </g>
  <g id="A-6" data-name="A">
    <path class="cls-1" d="M402.48,323.17c-4.18-7.26-8.79-12.92-12.39-16.8,2.12-1.63,5.81-3.52,12.17-4.81,13.5-2.75,15.2-.76,20.27-13.33,5.08-12.58,17.09-9.03,25.39-12.25,2.14-.83,12.89-4.77,17.98-15.54-1.65,5.28-5.14,10.6-11.86,14.49-11.85,6.88-15.15,13.52-16.35,18.35-2.67,10.83-5.95,16.48-20.6,21.92-10.72,3.98-13.88,9.26-14.62,7.97Z"/>
  </g>
  <g id="A-7" data-name="A">
    <path class="cls-1" d="M422.7,372.32c-.39-4.81-1.39-8.9-2.31-11.81,1.51-.33,3.9-.4,7.53.5,7.71,1.9,8.1,3.35,13.85-1.94,5.75-5.3,11.13-.49,16.25-.12,1.32.09,7.89.69,13.2-3.66-2.16,2.34-5.29,4.25-9.75,4.63-7.87.66-11.23,3.31-13.04,5.53-4.07,4.98-7.16,7.12-16.14,6.34-6.56-.57-9.52,1.4-9.58.55Z"/>
  </g>
  <g id="A-8" data-name="A">
    <path class="cls-1" d="M417.99,434.88c1.92-4.43,2.95-8.52,3.5-11.51,1.49.42,3.63,1.48,6.42,3.97,5.92,5.29,5.58,6.76,13.14,4.78,7.56-1.98,10.06,4.79,14.41,7.52,1.12.7,6.64,4.31,13.38,2.96-3.01,1.06-6.67,1.28-10.78-.49-7.26-3.11-11.47-2.35-14.11-1.23-5.93,2.49-9.66,2.93-17.23-1.97-5.53-3.58-9.06-3.23-8.72-4.01Z"/>
  </g>
  <g id="A-9" data-name="A">
    <path class="cls-1" d="M166.9,357.02c-1.92,4.43-2.95,8.52-3.5,11.51-1.49-.42-3.63-1.48-6.42-3.97-5.92-5.29-5.58-6.76-13.14-4.78-7.56,1.98-10.06-4.79-14.41-7.52-1.12-.7-6.64-4.31-13.38-2.96,3.01-1.06,6.67-1.28,10.78.49,7.26,3.11,11.47,2.35,14.11,1.23,5.93-2.49,9.66-2.93,17.23,1.97,5.53,3.58,9.06,3.23,8.72,4.01Z"/>
  </g>
  <g id="A-10" data-name="A">
    <path class="cls-1" d="M272.24,265.58c-11.25,1.63-20.72,4.6-27.41,7.19-1-3.5-1.52-9.1.04-17.76,3.3-18.41,6.67-19.55-6.65-32.26-13.32-12.72-2.82-26.09-2.71-38.17.02-3.12.45-18.65-10.58-30.48,5.83,4.73,10.79,11.8,12.33,22.23,2.73,18.39,9.45,25.9,14.94,29.83,12.32,8.81,17.8,15.77,17.31,36.98-.35,15.52,4.71,22.16,2.72,22.44Z"/>
  </g>
  <g id="A-11" data-name="A">
    <path class="cls-1" d="M200.49,300.79c-6.33,5.48-11.02,11.09-14.14,15.36-2.01-1.77-4.56-5.04-7.04-11.03-5.27-12.73-3.63-14.77-16.94-17.36-13.31-2.6-12.12-15.06-16.85-22.6-1.23-1.95-7.13-11.74-18.68-14.7,5.5.61,11.38,3.03,16.49,8.89,9.01,10.32,16.16,12.31,21.12,12.56,11.14.57,17.31,2.71,25.44,16.05,5.95,9.76,11.73,11.87,10.61,12.83Z"/>
  </g>
  <g id="A-12" data-name="A">
    <path class="cls-1" d="M162.19,419.58c.39,4.81,1.39,8.9,2.31,11.81-1.51.33-3.9.4-7.53-.5-7.71-1.9-8.1-3.35-13.85,1.94-5.75,5.3-11.13.49-16.25.12-1.32-.09-7.89-.69-13.2,3.66,2.16-2.34,5.29-4.25,9.75-4.63,7.87-.66,11.23-3.31,13.04-5.53,4.07-4.98,7.16-7.12,16.14-6.34,6.56.57,9.52-1.4,9.58-.55Z"/>
  </g>
  <path id="Bottom" class="cls-1" d="M295.42,657.18l-11.91-111.04,6.43,216.56s.17,5.69.34,11.36c.26-5.81.51-11.62.51-11.62l4.63-105.27Z"/>
  <path id="Right_4-2" data-name="Right 4" class="cls-1" d="M391.1,554.95l-22.85-54.43,57.08,97.99s1.5,2.57,2.99,5.14c-1.85-2.42-3.7-4.84-3.7-4.84l-33.52-43.87Z"/>
  <path id="Right_3-2" data-name="Right 3" class="cls-1" d="M500.85,494.84l-48.53-33.08,100.04,53.31s2.63,1.4,5.25,2.8c-2.82-1.14-5.64-2.29-5.64-2.29l-51.11-20.74Z"/>
  <path id="Right_2-2" data-name="Right 2" class="cls-1" d="M500.85,297.07l-48.53,33.08,100.04-53.31s2.63-1.4,5.25-2.8c-2.82,1.14-5.64,2.29-5.64,2.29l-51.11,20.74Z"/>
  <path id="Right_1-2" data-name="Right 1" class="cls-1" d="M390.31,239.77l-22.85,54.43,57.08-97.99s1.5-2.57,2.99-5.14c-1.85,2.42-3.7,4.84-3.7,4.84l-33.52,43.87Z"/>
  <path id="Left_4-2" data-name="Left 4" class="cls-1" d="M194.58,552.13l22.85-54.43-57.08,97.99s-1.5,2.57-2.99,5.14c1.85-2.42,3.7-4.84,3.7-4.84l33.52-43.87Z"/>
  <path id="Left_3-2" data-name="Left 3" class="cls-1" d="M84.04,494.84l48.53-33.08-100.04,53.31s-2.63,1.4-5.25,2.8c2.82-1.14,5.64-2.29,5.64-2.29l51.11-20.74Z"/>
  <path id="Left_2-2" data-name="Left 2" class="cls-1" d="M84.04,297.07l48.53,33.08-100.04-53.31s-2.63-1.4-5.25-2.8c2.82,1.14,5.64,2.29,5.64,2.29l51.11,20.74Z"/>
  <path id="Left_1-2" data-name="Left 1" class="cls-1" d="M193.79,236.96l22.85,54.43-57.08-97.99s-1.5-2.57-2.99-5.14c1.85,2.42,3.7,4.84,3.7,4.84l33.52,43.87Z"/>
  <path id="Top" class="cls-1" d="M295.42,131.59l-11.91,111.04s6.6-222.24,6.77-227.92c.26,5.81,5.14,116.88,5.14,116.88Z"/>
  <g>
    <path class="cls-1" d="M192.32,408.68c-.16-.12-.24-.26-.24-.42,0-.19.08-.35.24-.5.16-.15.36-.26.6-.34.96-.27,1.62-.57,1.98-.9.36-.33.54-.89.54-1.66v-18.36c0-.88-.17-1.48-.5-1.8-.33-.32-1.04-.6-2.1-.84-.56-.13-.84-.41-.84-.84,0-.19.08-.33.24-.44s.35-.16.56-.16c.99,0,2,.04,3.05.12,1.28.05,2.18.08,2.69.08.53,0,1.5-.03,2.89-.08,1.5-.05,2.54-.08,3.13-.08.48,0,.72.19.72.56,0,.24-.07.42-.2.54-.13.12-.35.22-.64.3-1.12.32-1.87.65-2.25.98-.37.34-.56.89-.56,1.66v18.04c0,.75.16,1.28.48,1.6.32.32.88.48,1.68.48h4.09c1.1,0,2.04-.36,2.85-1.08.8-.78,1.51-1.83,2.13-3.17.24-.51.44-.85.6-1.02s.32-.26.48-.26c.19,0,.33.09.42.26.09.17.14.35.14.54,0,.08-.03.19-.08.34-.05.15-.08.3-.08.46-.4,1.44-.68,2.49-.82,3.13-.15.64-.26,1.4-.34,2.28-.05.51-.27.76-.64.76l-4.61-.08c-5.85-.08-8.95-.12-9.3-.12-1.02,0-2.09.04-3.21.12l-2.49.08c-.24,0-.44-.06-.6-.18Z"/>
    <path class="cls-1" d="M215.78,408.68c-.16-.12-.24-.26-.24-.42s.07-.32.22-.48c.15-.16.37-.28.66-.36.96-.27,1.62-.56,1.98-.88s.54-.9.54-1.72v-18.24c0-.88-.17-1.5-.5-1.86-.33-.36-1-.65-1.98-.86-.61-.13-.92-.41-.92-.84,0-.16.08-.3.24-.42.16-.12.37-.18.64-.18,1.02,0,2.04.04,3.09.12,1.39.05,2.37.08,2.93.08,3.29,0,6.18-.04,8.66-.12.83,0,1.54-.05,2.12-.14s.92-.14,1-.14c.21,0,.43.06.64.18.21.12.33.31.36.58.05.51.16,1.27.32,2.29.21,1.44.32,2.42.32,2.93,0,.24-.05.43-.16.56-.11.13-.23.2-.36.2-.35,0-.6-.21-.76-.64-.08-.19-.22-.52-.42-1s-.37-.87-.52-1.16c-.15-.29-.31-.53-.5-.72-.83-.83-1.79-1.24-2.89-1.24h-3.01c-.59,0-1.1.16-1.52.48-.43.32-.64.75-.64,1.28v7.58c0,.64.33.96,1,.96h3.53c.64,0,1.12-.19,1.42-.58.31-.39.61-1,.9-1.82.16-.51.43-.76.8-.76.13,0,.25.08.36.24.11.16.15.37.12.64-.11,1.34-.16,2.42-.16,3.25,0,1.12.04,2.21.12,3.25l.04.32c0,.48-.15.72-.44.72-.19,0-.37-.09-.54-.28-.17-.19-.3-.43-.38-.72-.24-.86-.52-1.48-.82-1.89-.31-.4-.72-.6-1.22-.6h-3.73c-.67,0-1,.31-1,.92v7.62c0,.78.17,1.33.52,1.66.35.34.88.5,1.6.5h3.45c1.28,0,2.3-.29,3.05-.88.75-.59,1.51-1.66,2.29-3.21.19-.32.44-.48.76-.48.13,0,.23.07.3.22.07.15.1.33.1.54,0,.48-.08,1.05-.24,1.7-.16.66-.4,1.48-.72,2.47-.13.37-.24.71-.32,1-.05.16-.17.29-.34.38-.17.09-.35.14-.54.14-1.1,0-2.15-.01-3.17-.04-5.61-.08-8.91-.12-9.9-.12-.88,0-1.8.04-2.77.12-1.28.05-2.21.08-2.77.08-.24,0-.44-.06-.6-.18Z"/>
    <path class="cls-1" d="M245.93,407.55c-2.14-1.11-3.84-2.67-5.09-4.67-1.26-2-1.88-4.28-1.88-6.82s.63-4.8,1.88-6.94c1.26-2.14,3.03-3.85,5.33-5.15s4.93-1.94,7.9-1.94c1.07,0,2.46.15,4.17.46,1.71.31,3.01.64,3.89.98.45.16.72.48.8.96.32,2.11.48,3.69.48,4.73,0,.27-.06.47-.18.6s-.29.2-.5.2c-.29,0-.52-.07-.68-.22-.16-.15-.29-.35-.4-.62-.59-1.34-1.23-2.36-1.92-3.09-.59-.59-1.28-1.06-2.06-1.4-.79-.35-1.8-.52-3.03-.52-1.87,0-3.48.5-4.83,1.5s-2.38,2.33-3.09,3.99c-.71,1.66-1.06,3.46-1.06,5.41,0,3.72.69,6.66,2.06,8.82,1.38,2.17,3.35,3.25,5.91,3.25.59,0,1.09-.09,1.5-.28.41-.19.83-.43,1.26-.72.27-.21.49-.56.66-1.04.17-.48.26-1,.26-1.56.05-.91.08-2,.08-3.29,0-.7-.29-1.16-.88-1.4-.51-.29-1.36-.58-2.57-.84-.24-.05-.46-.16-.66-.32-.2-.16-.3-.35-.3-.56,0-.16.09-.3.28-.42s.37-.18.56-.18c.99,0,2.04.04,3.17.12,1.44.05,2.43.08,2.97.08s1.34-.03,2.41-.08c1.18-.05,2.03-.08,2.57-.08.19,0,.35.05.48.16.13.11.2.25.2.44,0,.43-.27.71-.8.84-.72.19-1.22.42-1.5.7-.28.28-.47.7-.58,1.26-.19.91-.28,1.91-.28,3.01v1.28c0,.19.17.45.52.8.27.32.4.6.4.84,0,.21-.06.4-.18.56-.12.16-.31.25-.58.28-.19.03-.56.17-1.12.44-1.18.59-2.45,1.08-3.81,1.48-1.36.4-2.93.6-4.69.6-2.57,0-4.92-.56-7.06-1.66Z"/>
    <path class="cls-1" d="M267.5,408.62c-.16-.11-.24-.24-.24-.4,0-.46.28-.74.84-.84,1.04-.24,1.76-.53,2.14-.86.39-.33.58-.91.58-1.74v-18.2c0-.88-.17-1.5-.52-1.85-.35-.35-1.06-.64-2.13-.88-.56-.13-.84-.41-.84-.84,0-.19.08-.33.24-.44s.35-.16.56-.16c.96,0,1.97.04,3.01.12,1.34.05,2.26.08,2.77.08.45,0,1.38-.03,2.77-.08,1.44-.05,2.47-.08,3.09-.08.51,0,.76.19.76.56,0,.24-.07.42-.2.54s-.36.22-.68.3c-1.07.29-1.78.62-2.13.98s-.52.96-.52,1.78v18.12c0,.78.19,1.34.56,1.68.37.35,1.1.67,2.16.96.29.08.51.17.64.28s.2.28.2.52c0,.4-.24.6-.72.6-.96,0-1.99-.04-3.09-.12-1.39-.05-2.34-.08-2.85-.08-.53,0-1.47.03-2.81.08-1.04.08-2.06.12-3.05.12-.21,0-.4-.05-.56-.16Z"/>
    <path class="cls-1" d="M289.37,407.55c-2.13-1.11-3.82-2.67-5.09-4.67s-1.9-4.29-1.9-6.86.55-4.76,1.66-6.9c1.11-2.14,2.74-3.85,4.89-5.15,2.15-1.3,4.71-1.94,7.68-1.94,2.49,0,4.79.55,6.92,1.66s3.82,2.67,5.09,4.67,1.91,4.29,1.91,6.86-.56,4.76-1.67,6.9-2.75,3.86-4.91,5.15c-2.17,1.3-4.73,1.94-7.7,1.94-2.46,0-4.75-.56-6.88-1.66ZM302.08,404.63c1.19-1.83,1.79-4.28,1.79-7.36,0-2.3-.3-4.46-.88-6.5s-1.48-3.68-2.69-4.95c-1.2-1.27-2.69-1.91-4.45-1.91-2.22,0-3.92.91-5.09,2.73-1.18,1.82-1.76,4.25-1.76,7.3,0,2.3.29,4.47.88,6.52.59,2.04,1.48,3.71,2.67,4.99,1.19,1.28,2.67,1.92,4.43,1.92,2.22,0,3.92-.91,5.11-2.75Z"/>
    <path class="cls-1" d="M337.14,408.72c-.78-.47-1.54-1.17-2.29-2.1-2.46-2.62-5.03-5.41-7.7-8.38l-7.74-8.34c-.27-.32-.44-.48-.52-.48-.19,0-.28.27-.28.8-.03.96-.02,2.27.02,3.93.04,1.66.06,2.86.06,3.61.05,3.05.08,5.2.08,6.46,0,.85.26,1.54.78,2.04s1.32.88,2.39,1.12c.75.16,1.12.43,1.12.8,0,.19-.1.34-.3.44-.2.11-.43.16-.7.16-.83,0-1.7-.03-2.6-.08-.75-.05-1.36-.08-1.85-.08-.8,0-1.58.03-2.33.08-.75.05-1.22.08-1.4.08-.21,0-.43-.05-.64-.16-.22-.11-.32-.24-.32-.4,0-.19.09-.34.26-.46.17-.12.43-.25.78-.38,1.23-.45,1.91-1.55,2.04-3.29.21-1.98.41-4.38.58-7.2.17-2.82.26-5.69.26-8.6,0-1.26-.31-2.21-.92-2.85-.61-.64-1.52-1.19-2.73-1.64-.75-.21-1.12-.51-1.12-.88,0-.43.35-.64,1.04-.64.48,0,1.52.03,3.13.08,2.89.08,4.44.12,4.65.12.32,0,.6.15.84.44,1.04,1.18,3.11,3.53,6.21,7.06,2.62,2.99,5.53,6.28,8.74,9.86.27.35.48.52.64.52.21,0,.32-.2.32-.6l.04-5.61c0-2.91-.04-5.49-.12-7.74-.03-.7-.28-1.23-.76-1.6-.48-.37-1.22-.68-2.21-.92-.72-.16-1.08-.44-1.08-.84,0-.16.1-.29.3-.4s.43-.16.7-.16l3.89.04,1.84-.04c.85-.05,1.67-.08,2.45-.08.29,0,.53.05.72.16s.28.25.28.44c0,.4-.35.67-1.04.8-.96.19-1.64.46-2.03.8-.39.35-.59.91-.62,1.68,0,1.2-.03,2.71-.08,4.51-.05,1.8-.09,3.09-.12,3.87-.13,3.13-.2,5.68-.2,7.66,0,1.02.11,2.3.32,3.85l.12,1.44c0,1.2-.37,1.8-1.12,1.8-.43,0-1.03-.24-1.8-.7Z"/>
    <path class="cls-1" d="M345.16,408.68c-.16-.12-.24-.26-.24-.42s.07-.32.22-.48c.15-.16.37-.28.66-.36.96-.27,1.62-.56,1.98-.88s.54-.9.54-1.72v-18.24c0-.88-.17-1.5-.5-1.86-.33-.36-1-.65-1.98-.86-.61-.13-.92-.41-.92-.84,0-.16.08-.3.24-.42.16-.12.37-.18.64-.18,1.02,0,2.04.04,3.09.12,1.39.05,2.36.08,2.93.08,3.29,0,6.17-.04,8.66-.12.83,0,1.54-.05,2.12-.14s.92-.14,1-.14c.21,0,.43.06.64.18.21.12.33.31.36.58.05.51.16,1.27.32,2.29.21,1.44.32,2.42.32,2.93,0,.24-.05.43-.16.56-.11.13-.23.2-.36.2-.35,0-.6-.21-.76-.64-.08-.19-.22-.52-.42-1s-.37-.87-.52-1.16c-.15-.29-.31-.53-.5-.72-.83-.83-1.79-1.24-2.89-1.24h-3.01c-.59,0-1.1.16-1.52.48-.43.32-.64.75-.64,1.28v7.58c0,.64.33.96,1,.96h3.53c.64,0,1.12-.19,1.42-.58.31-.39.61-1,.9-1.82.16-.51.43-.76.8-.76.13,0,.25.08.36.24.11.16.15.37.12.64-.11,1.34-.16,2.42-.16,3.25,0,1.12.04,2.21.12,3.25l.04.32c0,.48-.15.72-.44.72-.19,0-.37-.09-.54-.28-.17-.19-.3-.43-.38-.72-.24-.86-.52-1.48-.82-1.89s-.72-.6-1.22-.6h-3.73c-.67,0-1,.31-1,.92v7.62c0,.78.17,1.33.52,1.66.35.34.88.5,1.6.5h3.45c1.28,0,2.3-.29,3.05-.88.75-.59,1.51-1.66,2.29-3.21.19-.32.44-.48.76-.48.13,0,.23.07.3.22.07.15.1.33.1.54,0,.48-.08,1.05-.24,1.7-.16.66-.4,1.48-.72,2.47-.13.37-.24.71-.32,1-.05.16-.17.29-.34.38-.17.09-.36.14-.54.14-1.1,0-2.15-.01-3.17-.04-5.61-.08-8.91-.12-9.9-.12-.88,0-1.8.04-2.77.12-1.28.05-2.21.08-2.77.08-.24,0-.44-.06-.6-.18Z"/>
    <path class="cls-1" d="M392.63,408.72c-.78-.47-1.54-1.17-2.29-2.1-2.46-2.62-5.03-5.41-7.7-8.38l-7.74-8.34c-.27-.32-.44-.48-.52-.48-.19,0-.28.27-.28.8-.03.96-.02,2.27.02,3.93.04,1.66.06,2.86.06,3.61.05,3.05.08,5.2.08,6.46,0,.85.26,1.54.78,2.04s1.32.88,2.39,1.12c.75.16,1.12.43,1.12.8,0,.19-.1.34-.3.44-.2.11-.43.16-.7.16-.83,0-1.7-.03-2.6-.08-.75-.05-1.36-.08-1.85-.08-.8,0-1.58.03-2.33.08-.75.05-1.22.08-1.4.08-.21,0-.43-.05-.64-.16-.22-.11-.32-.24-.32-.4,0-.19.09-.34.26-.46.17-.12.43-.25.78-.38,1.23-.45,1.91-1.55,2.04-3.29.21-1.98.41-4.38.58-7.2.17-2.82.26-5.69.26-8.6,0-1.26-.31-2.21-.92-2.85-.61-.64-1.52-1.19-2.73-1.64-.75-.21-1.12-.51-1.12-.88,0-.43.35-.64,1.04-.64.48,0,1.52.03,3.13.08,2.89.08,4.44.12,4.65.12.32,0,.6.15.84.44,1.04,1.18,3.11,3.53,6.21,7.06,2.62,2.99,5.53,6.28,8.74,9.86.27.35.48.52.64.52.21,0,.32-.2.32-.6l.04-5.61c0-2.91-.04-5.49-.12-7.74-.03-.7-.28-1.23-.76-1.6-.48-.37-1.22-.68-2.21-.92-.72-.16-1.08-.44-1.08-.84,0-.16.1-.29.3-.4s.43-.16.7-.16l3.89.04,1.84-.04c.85-.05,1.67-.08,2.45-.08.29,0,.53.05.72.16s.28.25.28.44c0,.4-.35.67-1.04.8-.96.19-1.64.46-2.03.8-.39.35-.59.91-.62,1.68,0,1.2-.03,2.71-.08,4.51-.05,1.8-.09,3.09-.12,3.87-.13,3.13-.2,5.68-.2,7.66,0,1.02.11,2.3.32,3.85l.12,1.44c0,1.2-.37,1.8-1.12,1.8-.43,0-1.03-.24-1.8-.7Z"/>
  </g>
</svg>