<svg width="278" height="378" viewBox="0 0 278 378" fill="none" xmlns="http://www.w3.org/2000/svg">
<path d="M138.064 3.19989C137.855 4.98819 137.66 6.94415 137.618 7.55888C137.437 10.1855 136.309 48.606 134.902 99.2793C134.596 110.386 134.289 121.382 134.206 123.729C134.136 126.076 134.066 128.381 134.066 128.856V129.722L133.621 129.792C133.37 129.834 132.381 129.96 131.42 130.1C125.264 130.91 118.788 132.922 113.022 135.814L111.239 136.708L103.468 126.272C91.6293 110.358 76.7687 90.5055 75.0556 88.298C73.83 86.7193 70.3202 82.5699 69.3453 81.536C68.9693 81.1448 71.7548 87.0546 72.9665 89.2201C75.5848 93.9284 82.6182 106.069 96.3925 129.667C100.209 136.191 103.342 141.612 103.384 141.682C103.412 141.766 102.618 142.52 101.615 143.344C96.5318 147.578 91.7547 153.25 88.3285 159.104C87.8967 159.858 87.5068 160.473 87.465 160.473C87.3814 160.473 87.1725 160.389 62.688 150.064C30.989 136.708 14.3178 129.722 9.79134 127.892C8.12004 127.236 0.45992 124.553 0.40421 124.623C0.376355 124.651 2.06158 125.699 4.15071 126.984C9.45708 130.211 11.017 131.036 71.323 162.429C78.1336 165.964 83.7324 168.883 83.7464 168.911C83.7742 168.925 83.5653 169.596 83.2867 170.406C82.465 172.851 81.8104 175.52 81.9079 176.023C82.0472 176.707 82.5904 177.448 83.1335 177.699C83.5792 177.923 87.7853 177.937 139.665 177.937H195.696L196.169 177.643C196.81 177.252 197.116 176.861 197.283 176.162C197.409 175.673 197.381 175.352 197.019 173.997C196.796 173.131 196.364 171.636 196.058 170.672C195.751 169.722 195.515 168.925 195.528 168.911C195.542 168.897 202.144 165.475 210.18 161.311C264.692 133.048 270.138 130.169 274.637 127.194C276.378 126.034 277.798 125.07 277.798 125.042C277.798 125.028 276.336 125.503 274.567 126.09C271.043 127.277 268.091 128.451 256.559 133.271C245.737 137.784 194.804 159.229 192.576 160.207C192.242 160.347 191.893 160.473 191.81 160.473C191.726 160.473 191.489 160.138 191.267 159.732C190.027 157.343 186.907 152.914 184.442 150.064C182.757 148.108 179.275 144.685 177.353 143.107L175.863 141.877L176.531 140.732C203.133 95.2696 205.556 91.0643 208.523 85.1266C209.637 82.9052 210.528 81.0749 210.501 81.047C210.445 80.9911 206.253 85.8531 204.79 87.6833C202.074 91.0783 194.233 101.529 179.749 121.074C170.932 132.964 168.342 136.443 168.175 136.638C168.119 136.694 167.325 136.373 166.42 135.912C160.445 132.866 153.621 130.784 146.768 129.932C145.807 129.82 144.986 129.694 144.958 129.667C144.888 129.597 142.186 68.3473 141.657 54.921C140.724 30.9326 139.916 12.3929 139.637 8.32729C139.526 6.59487 138.635 0.14021 138.481 0.000498712C138.467 -0.0274435 138.273 1.41158 138.064 3.19989ZM141.796 100.173C142.52 116.757 143.119 130.575 143.119 130.854V131.385L144.066 131.483C150.501 132.084 155.487 133.243 160.807 135.353C162.743 136.121 165.905 137.63 167.465 138.51C168.036 138.832 168.551 139.069 168.607 139.027C168.676 138.985 172.409 133.984 176.907 127.92C181.406 121.857 185.111 116.911 185.139 116.925C185.152 116.953 183.37 121.27 181.169 126.537C177.228 135.926 177.116 136.149 175.334 139.223L173.509 142.338L174.846 143.4C180.974 148.192 186.267 154.395 189.985 161.13L190.918 162.834L191.573 162.569C191.921 162.429 197.353 160.152 203.634 157.497C217.743 151.545 234.08 144.658 234.832 144.35C235.138 144.21 235.333 144.169 235.25 144.238C235.18 144.308 232.422 146.208 229.149 148.458L223.188 152.523L209.442 159.663C192.074 168.66 193.23 168.045 193.342 168.297C193.662 169.107 194.971 173.228 195.264 174.36C195.528 175.394 195.584 175.799 195.473 175.939C195.236 176.218 84.0388 176.218 83.8021 175.925C83.5792 175.659 84.0945 173.62 85.1252 170.602C85.543 169.372 85.9051 168.283 85.919 168.185C85.933 168.073 79.9581 164.888 70.7659 160.096L55.585 152.188L49.7772 148.22C46.5739 146.027 43.9555 144.224 43.9555 144.183C43.9555 144.113 42.7159 143.596 65.6824 153.278C77.284 158.168 87.1307 162.317 87.5625 162.499L88.3564 162.82L89.1502 161.325C91.5318 156.91 94.6655 152.663 98.412 148.821C100.682 146.488 102.883 144.518 104.693 143.177C105.431 142.632 105.766 142.31 105.71 142.171C105.668 142.059 104.916 140.718 104.025 139.181C102.493 136.554 102.2 135.912 98.3981 126.83C96.1836 121.563 94.4009 117.232 94.4148 117.218C94.4427 117.19 98.1195 122.094 102.59 128.116L110.724 139.055L113.106 137.826C116.016 136.317 118.105 135.409 121.002 134.417C125.014 133.034 130.111 131.93 134.178 131.581C134.958 131.511 135.654 131.413 135.696 131.357C135.793 131.259 135.905 127.892 136.351 112.133L136.559 104.658L138.481 86.6355C139.54 76.716 140.417 68.9201 140.445 69.3113C140.459 69.6885 141.072 83.5758 141.796 100.173Z" fill="white"/>
<path d="M170.974 64.7008C170.821 64.8824 170.919 65.1758 171.504 66.4193C172.868 69.3253 173.272 71.0716 173.272 74.1313C173.272 76.5064 173.077 77.7359 172.353 79.9293C171.476 82.6118 169.609 85.8391 167.938 87.5855C167.423 88.1164 166.155 89.29 165.125 90.1981C161.838 93.0482 160.501 94.7387 159.763 96.9741C159.164 98.7345 159.15 100.299 159.679 103.373C160.153 106.125 160.236 108.039 159.916 109.129C159.582 110.205 158.788 111.253 156.991 112.971C154.052 115.765 151.573 118.322 150.752 119.398C149.094 121.577 147.994 124.036 147.994 125.531C147.994 126.509 148.286 126.719 150.083 127.012C154.442 127.725 159.846 129.443 164.623 131.636C165.682 132.125 166.685 132.531 166.866 132.531C167.283 132.531 167.465 132.223 168.244 130.086C169.178 127.557 170.306 125.447 172.186 122.751C175.584 117.861 176.698 115.43 177.102 112.049C177.367 109.883 176.921 107.103 175.779 103.75C174.136 98.9021 174.665 94.613 177.729 88.0885C178.802 85.8252 179.359 84.1766 179.665 82.3883C180.556 77.1211 178.62 71.393 174.414 66.9083C173.203 65.6369 171.782 64.4912 171.392 64.4912C171.253 64.4912 171.072 64.589 170.974 64.7008ZM175.459 69.6187C177.576 72.5526 178.829 75.9755 178.829 78.7418C178.829 82.4721 176.698 87.7252 173.802 91.1482C173.453 91.5533 172.061 92.8526 170.71 94.0402C167.172 97.1138 166.002 98.5808 165.32 100.732C164.749 102.535 164.735 103.778 165.264 106.894C165.64 109.115 165.696 109.814 165.654 111.155C165.598 112.622 165.556 112.845 165.125 113.739C164.637 114.773 164.317 115.109 159.456 119.845C157.061 122.192 155.515 124.106 154.623 125.824C154.331 126.397 154.066 126.886 154.066 126.9C154.052 126.914 153.593 126.816 153.05 126.677C152.492 126.537 151.406 126.3 150.612 126.174C149.818 126.034 149.094 125.852 148.997 125.755C148.718 125.503 149.108 123.994 149.791 122.653C150.974 120.306 152.437 118.56 156.323 114.913C160.501 110.959 160.988 110.149 160.988 107.103C160.988 105.832 160.905 104.854 160.654 103.541C160.403 102.157 160.32 101.263 160.334 99.8382C160.334 98.1198 160.375 97.8683 160.71 96.9741C161.517 94.9343 162.548 93.6909 165.905 90.743C169.289 87.7811 170.584 86.1465 172.158 82.8633C174.637 77.7219 174.93 72.8041 173.063 67.6627C172.827 67.048 172.646 66.5031 172.646 66.4612C172.673 66.2796 174.735 68.6127 175.459 69.6187Z" fill="white"/>
<path d="M95.0276 68.5987C94.5959 69.0318 94.6794 69.1296 96.5318 70.1635C102.326 73.4188 105.654 79.6359 105.654 87.2083C105.654 88.8429 105.431 90.226 104.763 92.8526C103.523 97.6866 103.44 100.006 104.443 102.465C105.069 104.029 105.696 104.896 107.743 107.019C111.002 110.4 111.379 111.029 111.476 113.111C111.518 114.284 111.448 114.843 110.807 118.001C109.916 122.415 109.693 124.022 109.693 126.188C109.693 128.102 109.958 129.792 110.473 131.05C111.142 132.698 111.671 132.866 113.426 131.986C117.144 130.128 123.189 128.2 127.938 127.361C128.899 127.194 129.819 127.04 129.986 126.998C130.167 126.97 130.403 126.788 130.515 126.607C130.71 126.313 130.696 126.174 130.362 124.902C129.373 121.172 129.331 120.795 129.192 115.835C129.066 111.071 128.871 109.213 128.273 107.159C127.27 103.652 125.487 101.347 121.462 98.2874C118.635 96.1358 117.493 94.8086 116.142 92.0842C115.083 89.9606 114.429 87.7531 113.788 84.1067C112.966 79.3565 111.601 76.5623 108.732 73.7401C105.752 70.8062 100.863 68.6686 96.5875 68.445C95.4594 68.3752 95.2226 68.4031 95.0276 68.5987ZM98.9273 69.6745C102.618 70.4708 105.835 72.1753 108.245 74.6063C109.345 75.724 109.596 76.0593 110.209 77.3446C111.044 79.0771 111.532 80.5021 111.95 82.4301C112.214 83.6316 112.256 84.2883 112.27 86.845V89.8488L111.546 92.7827C110.585 96.6527 110.487 97.2954 110.557 99.2514C110.682 102.269 111.309 103.499 114.359 106.684C116.504 108.905 117.534 110.275 117.994 111.504C118.44 112.692 118.328 114.312 117.521 118.28C117.131 120.166 116.741 122.234 116.643 122.891C116.434 124.26 116.392 127.291 116.56 128.633L116.671 129.541L115.236 130.156C114.443 130.491 113.44 130.938 113.008 131.161C111.88 131.72 111.741 131.692 111.365 130.84C110.849 129.625 110.64 128.283 110.64 126.174C110.64 123.91 110.863 122.318 111.727 118.14C113.078 111.7 112.841 110.917 108.022 105.916C106.615 104.463 106.156 103.876 105.682 102.94C104.331 100.341 104.345 98.441 105.71 92.8666C106.56 89.4157 106.727 87.9487 106.518 85.42C106.142 80.9911 104.888 77.3307 102.73 74.4247C101.699 73.0415 99.5958 71.0297 98.231 70.1076C97.6321 69.7024 97.2421 69.3811 97.3535 69.3811C97.4789 69.3811 98.1892 69.5068 98.9273 69.6745Z" fill="white"/>
<path d="M221.851 114.34C221.642 114.508 221.531 114.913 221.406 115.835C221.058 118.49 219.943 120.795 218.091 122.751C216.698 124.232 215.361 125.182 213.286 126.174C211.573 126.984 210.695 127.222 207.952 127.571C204.748 127.99 202.98 128.661 201.643 129.932C200.598 130.924 200.166 131.595 199.331 133.565C198.119 136.415 197.311 137.407 195.793 137.896C195.431 138.007 194.038 138.301 192.701 138.552C188.439 139.321 186.517 139.921 184.804 141.039C183.801 141.696 182.952 142.618 182.952 143.065C182.952 143.316 183.425 143.875 184.665 145.133C187.256 147.731 189.428 150.47 191.155 153.348C191.866 154.507 192.06 154.745 192.367 154.745C192.45 154.745 193.119 154.312 193.843 153.781C195.737 152.398 197.088 151.657 199.317 150.763C200.389 150.33 201.712 149.757 202.269 149.492C204.762 148.304 206.824 146.432 207.854 144.448C208.37 143.428 209.261 140.913 209.484 139.796C209.623 139.125 210.403 137.448 210.932 136.666C212.074 135.018 214.247 133.103 216.629 131.678C220.25 129.499 222.116 127.152 223.091 123.575C223.369 122.541 223.411 122.08 223.411 119.817C223.411 117.107 223.23 115.961 222.631 114.759C222.297 114.103 222.172 114.033 221.851 114.34ZM222.548 119.817C222.562 122.22 222.283 123.617 221.392 125.517C220.904 126.537 220.64 126.9 219.595 127.92C218.23 129.247 216.573 130.337 214.748 131.134C213.342 131.734 212.228 132 209.484 132.377C204.943 133.006 203.133 134.193 201.74 137.421C200.306 140.718 199.553 141.78 198.189 142.408C197.715 142.618 196.239 142.981 194.191 143.358C190.668 144.029 188.801 144.574 187.464 145.314L186.615 145.775L185.236 144.378L183.857 142.995L184.456 142.45C185.487 141.514 187.715 140.508 189.707 140.075C190.097 139.991 191.573 139.698 192.994 139.446C196.322 138.832 197.005 138.58 198.008 137.56C198.648 136.932 198.969 136.415 199.665 134.962C200.138 133.97 200.682 132.824 200.891 132.405C201.67 130.784 203.356 129.485 205.306 128.996C205.765 128.87 207.241 128.619 208.592 128.423C211.239 128.032 212.409 127.697 214.177 126.802C218.356 124.707 220.988 121.563 222.102 117.302L222.269 116.673L222.409 117.232C222.478 117.54 222.548 118.699 222.548 119.817Z" fill="white"/>
<path d="M57.4652 118.853C54.5404 119.216 51.0725 120.599 50.9471 121.465C50.9193 121.633 50.9889 121.801 51.0864 121.843C51.1978 121.885 52.2841 121.94 53.5098 121.968C55.2786 121.996 55.9192 122.066 56.7409 122.318C59.5543 123.156 62.2005 125.07 64.1643 127.683C65.2646 129.136 65.8077 130.267 66.6573 132.768C67.5905 135.52 68.2033 136.722 69.22 137.798C70.5292 139.209 71.4902 139.684 74.4706 140.354C76.6851 140.857 77.7715 141.332 78.4678 142.087C79.1085 142.771 79.4428 143.484 80.5152 146.292C81.3787 148.555 82.2979 150.497 82.9803 151.517C84.1503 153.236 85.4455 154.409 86.3369 154.563C86.9218 154.647 86.9775 154.605 88.231 152.649C89.958 149.981 92.7575 146.697 94.9998 144.685C96.5597 143.288 96.5597 143.246 94.9162 141.738C93.4678 140.41 92.1864 138.859 91.0583 137.071C88.8717 133.564 86.9915 131.567 84.9163 130.519C83.3842 129.764 81.7826 129.387 78.9832 129.122C77.4929 128.982 76.6016 128.828 75.8773 128.577C73.6071 127.78 71.4205 126.174 68.7743 123.324C65.9192 120.264 63.3844 118.993 59.6936 118.783C59.039 118.755 58.0362 118.783 57.4652 118.853ZM60.9053 119.817C63.1894 120.194 64.8885 121.116 66.8105 123.044C68.83 125.07 69.8606 126.816 70.9748 130.114C71.9358 132.936 72.5347 134.081 73.5514 135.129C74.6935 136.303 75.6963 136.778 78.2589 137.365C79.4149 137.63 80.7659 138.035 81.2673 138.259C82.8829 139.027 83.3425 139.712 84.8327 143.638C86.0444 146.809 87.1168 148.849 88.1614 149.967C88.4678 150.302 88.5513 150.469 88.4539 150.623C88.3703 150.735 87.9107 151.447 87.4093 152.216C86.9079 152.984 86.4483 153.613 86.3647 153.613C86.114 153.627 85.0555 152.705 84.4288 151.936C83.2728 150.497 82.6043 149.142 80.9191 144.825C80.0556 142.604 79.4428 141.556 78.6768 140.969C77.8968 140.368 76.5041 139.851 74.401 139.39C72.0751 138.859 70.8634 138.287 69.8885 137.211C68.9832 136.219 68.4958 135.227 67.5626 132.531C66.6016 129.75 66.1142 128.758 64.986 127.236C62.9665 124.511 60.4596 122.597 57.6462 121.647C56.6992 121.326 54.6379 120.935 53.858 120.935C53.2312 120.921 53.4401 120.795 54.7215 120.376C56.6435 119.747 59.1086 119.523 60.9053 119.817Z" fill="white"/>
<path d="M226.336 164.818C224.623 167.738 220.626 168.883 216.726 167.584C215.556 167.207 215.124 167.123 214.01 167.123C212.436 167.109 211.991 167.305 210.459 168.618C209.47 169.47 208.606 169.959 208.077 169.973C207.91 169.973 206.935 169.75 205.904 169.484C203.384 168.828 202.228 168.674 201.155 168.855C200.083 169.023 199.595 169.372 199.609 169.917C199.623 170.141 199.846 170.965 200.124 171.734C200.654 173.27 201.127 175.352 201.28 176.847C201.42 178.272 201.475 178.314 202.882 178.076C203.704 177.923 204.832 177.881 206.656 177.909C210.695 177.979 211.503 177.699 213.732 175.436C214.526 174.626 215.487 173.759 215.863 173.508C216.74 172.907 218.035 172.516 219.929 172.264C221.879 172.013 222.659 171.775 223.69 171.161C224.72 170.532 225.166 170.127 225.918 169.107C226.963 167.71 227.854 165.013 227.506 164.343C227.255 163.868 226.782 164.063 226.336 164.818ZM225.779 167.598C224.874 169.317 223.356 170.574 221.615 171.035C221.225 171.147 220.292 171.231 219.553 171.231C218.383 171.231 217.98 171.161 216.559 170.714C215.25 170.308 214.693 170.197 213.801 170.197C212.492 170.183 211.977 170.406 210.709 171.524C209.01 173.019 208.23 173.27 206.559 172.823C206.099 172.712 205.222 172.474 204.609 172.32C203.996 172.153 202.966 171.985 202.325 171.943L201.169 171.859L200.835 170.951C200.612 170.336 200.556 170.001 200.654 169.903C200.723 169.833 201.406 169.764 202.144 169.778C203.244 169.792 203.857 169.889 205.431 170.308C208.481 171.133 209.024 171.035 210.974 169.4C212.938 167.752 213.69 167.626 216.545 168.52C218.091 168.995 218.411 169.051 219.79 169.051C222.186 169.051 224.122 168.394 225.528 167.123C225.89 166.788 226.225 166.522 226.239 166.55C226.266 166.578 226.057 167.053 225.779 167.598Z" fill="white"/>
<path d="M56.0167 165.991C54.9025 166.285 53.649 166.914 52.702 167.668C50.5014 169.414 50.0418 171.259 52.0891 170.169C54.3036 168.981 56.6156 168.995 59.0947 170.211C59.9582 170.63 60.5014 171.049 61.7409 172.237C64.1504 174.556 65.1949 174.919 67.7297 174.318C70.0278 173.787 70.2785 173.871 72.5765 175.981C74.206 177.49 75.2227 178.188 76.3091 178.552C77.7993 179.054 78.0221 178.859 78.2868 176.959C78.5375 175.198 79.011 173.396 79.6795 171.58C80.2784 169.973 80.2505 169.875 78.8717 169.484C77.8968 169.205 76.7269 168.646 75.0138 167.598C72.3815 166.005 70.4734 165.824 67.4373 166.9C65.8356 167.472 65.7102 167.486 64.4985 167.431C63.454 167.375 62.8969 167.249 61.1559 166.634C58.7465 165.796 57.4373 165.628 56.0167 165.991ZM59.2897 166.983C60.8356 167.444 61.8663 168.101 63.4958 169.666C65.7799 171.859 66.6016 172.167 68.8439 171.664C70.376 171.314 71.5319 171.287 72.103 171.58C72.3258 171.706 73.2172 172.432 74.0667 173.201C75.3899 174.416 76.9079 175.562 77.3954 175.729C77.5208 175.771 77.3258 177.629 77.1726 177.769C77.0472 177.895 75.8077 177.364 75.0974 176.889C74.6935 176.624 73.7046 175.785 72.9108 175.059C72.1169 174.318 71.2116 173.592 70.9052 173.424C70.2227 173.075 68.9275 173.047 67.6879 173.382C66.4066 173.718 65.2506 173.676 64.4428 173.27C64.0807 173.075 63.1894 172.348 62.4651 171.636C60.4874 169.68 59.1504 168.939 56.8384 168.492C55.8078 168.283 55.4457 168.269 54.5543 168.395C53.9694 168.492 53.3705 168.604 53.2173 168.646C52.7716 168.786 53.7604 167.975 54.5265 167.542C55.9331 166.788 57.8412 166.55 59.2897 166.983Z" fill="white"/>
<path d="M120.069 182.352C118.314 182.631 116.796 183.4 115.696 184.573C114.373 185.998 113.774 187.647 113.913 189.533C114.15 192.788 116.643 195.121 120.167 195.359C121.504 195.457 122.618 195.247 124.275 194.59C125.445 194.115 125.571 194.046 125.571 193.71C125.571 193.501 125.473 193.249 125.348 193.151C125.153 192.998 125.139 192.788 125.209 191.852C125.32 190.511 125.431 190.287 126.142 190.008C126.504 189.854 126.685 189.7 126.685 189.519C126.685 189.379 126.601 189.253 126.518 189.253C126.42 189.253 125.069 189.239 123.523 189.225C121.434 189.198 120.654 189.239 120.529 189.365C120.292 189.603 120.599 189.854 121.365 190.078C121.699 190.175 122.103 190.385 122.256 190.539C122.521 190.804 122.534 190.93 122.465 192.048C122.353 193.584 122.312 193.668 121.643 194.018C120.626 194.534 119.164 194.032 118.468 192.928C117.702 191.726 117.562 191.07 117.562 188.764C117.562 186.892 117.604 186.599 117.883 185.984C118.342 184.992 118.913 184.336 119.679 183.916C121.532 182.911 123.44 183.441 124.47 185.272C125.014 186.236 125.222 186.417 125.515 186.166C125.71 186.012 125.724 185.803 125.64 184.866C125.529 183.483 125.39 183.134 124.916 182.952C123.83 182.547 121.072 182.198 120.069 182.352Z" fill="white"/>
<path d="M139.944 182.477C138.649 182.757 137.646 183.274 136.768 184.112C135.891 184.936 135.445 185.635 135.055 186.753C133.621 190.944 136.323 194.968 140.821 195.359C145.027 195.708 148.272 192.76 148.272 188.597C148.272 185.593 146.169 183.148 143.022 182.477C141.866 182.226 141.1 182.226 139.944 182.477ZM141.935 183.399C142.715 183.609 143.704 184.671 144.094 185.705C145.055 188.247 144.972 191.615 143.913 193.235C143.217 194.311 141.754 194.73 140.654 194.171C139.025 193.333 138.175 191.014 138.273 187.703C138.314 186.054 138.356 185.886 138.774 185.02C139.512 183.525 140.515 183.008 141.935 183.399Z" fill="white"/>
<path d="M102.743 182.631C102.465 182.841 102.716 183.176 103.259 183.316C104.15 183.539 104.122 183.344 104.122 188.834C104.122 194.367 104.164 194.087 103.175 194.437C102.73 194.59 102.535 195.107 102.911 195.135C103.927 195.205 112.409 195.107 112.493 195.023C112.646 194.856 113.175 192.858 113.175 192.425C113.175 191.782 112.743 191.978 112.214 192.83C111.532 193.976 111.184 194.143 109.415 194.143C108.607 194.143 107.855 194.073 107.743 194.004C107.576 193.892 107.535 193.473 107.535 191.601V189.323L108.816 189.281L110.111 189.239L110.487 190.05C110.71 190.511 110.975 190.86 111.086 190.86C111.406 190.86 111.392 186.836 111.072 186.767C110.933 186.739 110.766 186.934 110.599 187.297C110.459 187.619 110.209 187.968 110.055 188.08C109.693 188.331 107.869 188.345 107.632 188.108C107.521 187.996 107.465 187.311 107.465 185.97C107.465 183.483 107.479 183.455 109.206 183.455C110.626 183.455 110.947 183.651 111.615 184.894C112.075 185.761 112.367 185.97 112.535 185.537C112.632 185.286 112.353 183.008 112.2 182.701C112.117 182.533 111.323 182.491 107.535 182.491C104.317 182.477 102.897 182.519 102.743 182.631Z" fill="white"/>
<path d="M127.534 182.631C127.228 182.855 127.507 183.148 128.217 183.371C128.523 183.455 128.83 183.651 128.913 183.805C128.997 183.958 129.053 185.872 129.053 188.834C129.053 191.796 128.997 193.71 128.913 193.864C128.83 194.017 128.523 194.213 128.217 194.297C127.604 194.479 127.312 194.744 127.451 194.982C127.507 195.065 128.663 195.121 130.738 195.121C133.941 195.121 133.941 195.121 133.899 194.814C133.871 194.604 133.69 194.465 133.3 194.325C132.994 194.227 132.66 194.031 132.576 193.906C132.437 193.724 132.395 192.481 132.395 188.834C132.395 185.188 132.437 183.944 132.576 183.763C132.66 183.637 132.994 183.441 133.3 183.344C133.676 183.204 133.871 183.05 133.899 182.855C133.941 182.561 133.913 182.561 130.849 182.519C128.69 182.491 127.688 182.519 127.534 182.631Z" fill="white"/>
<path d="M149.08 182.491C148.83 182.743 149.025 182.98 149.804 183.399C151.072 184.07 151.128 184.21 151.086 186.599C151.044 189.547 150.793 192.872 150.557 193.528C150.417 193.934 150.208 194.185 149.86 194.367C149.582 194.52 149.401 194.716 149.415 194.842C149.484 195.149 154.192 195.163 154.192 194.856C154.192 194.646 154.094 194.576 153.161 194.199C152.827 194.059 152.479 193.822 152.381 193.654C152.144 193.305 151.921 185.97 152.144 186.054C152.214 186.082 154.15 188.108 156.434 190.553C160.738 195.149 161.42 195.736 162.033 195.415C162.409 195.219 162.451 194.856 162.297 193.305C162.214 192.439 162.214 190.581 162.311 187.94C162.492 183.483 162.492 183.469 163.398 183.302C163.941 183.204 164.261 182.882 164.052 182.673C163.829 182.449 159.387 182.505 159.247 182.729C159.108 182.952 159.359 183.148 160.153 183.441C160.515 183.581 160.877 183.805 160.946 183.944C161.141 184.322 161.309 190.581 161.128 190.692C161.044 190.748 159.387 189.016 157.437 186.836C155.487 184.671 153.802 182.827 153.69 182.729C153.454 182.547 149.233 182.31 149.08 182.491Z" fill="white"/>
<path d="M164.721 182.631C164.442 182.841 164.693 183.176 165.236 183.316C166.128 183.539 166.1 183.344 166.1 188.834C166.1 194.353 166.155 194.017 165.167 194.409C164.693 194.604 164.484 194.912 164.735 195.065C164.818 195.121 167.019 195.163 169.623 195.149C173.328 195.135 174.387 195.093 174.47 194.954C174.623 194.716 175.153 192.718 175.153 192.425C175.153 192.062 174.707 191.95 174.54 192.243C173.495 194.017 173.286 194.143 171.295 194.143C169.874 194.143 169.721 194.115 169.582 193.864C169.498 193.696 169.456 192.774 169.47 191.461L169.512 189.323L170.724 189.281C172.075 189.239 172.088 189.253 172.562 190.231C172.715 190.581 172.952 190.86 173.049 190.86C173.217 190.86 173.258 190.525 173.272 188.974C173.272 187.94 173.258 187.004 173.231 186.906C173.119 186.543 172.771 186.766 172.506 187.353C172.172 188.136 171.907 188.275 170.779 188.275C169.359 188.275 169.442 188.401 169.442 186.04V183.958L169.832 183.665C170.153 183.399 170.348 183.371 171.281 183.413C172.59 183.469 172.966 183.707 173.565 184.866C173.983 185.691 174.345 185.956 174.498 185.565C174.582 185.341 174.233 182.701 174.108 182.561C173.941 182.407 164.944 182.477 164.721 182.631Z" fill="white"/>
<path d="M175.668 182.505C175.417 182.743 175.64 182.994 176.406 183.385C177.813 184.098 177.868 184.308 177.659 188.317C177.409 193.459 177.283 194.059 176.392 194.423C176.127 194.534 175.988 194.688 176.016 194.828C176.058 195.023 176.364 195.051 178.426 195.051C180.361 195.051 180.793 195.009 180.793 194.856C180.793 194.646 180.696 194.576 179.763 194.199C179.428 194.059 179.08 193.822 178.983 193.654C178.76 193.305 178.537 185.984 178.76 186.054C178.829 186.082 180.71 188.038 182.924 190.399C187.088 194.856 187.409 195.163 188.022 195.401C188.885 195.722 189.122 195.191 188.913 193.417C188.815 192.481 188.815 190.972 188.941 187.996C189.122 183.469 189.122 183.469 189.999 183.302C190.25 183.26 190.542 183.12 190.64 183.008C191.002 182.575 190.487 182.477 188.119 182.519C185.932 182.561 185.863 182.575 185.905 182.841C185.932 183.036 186.127 183.19 186.462 183.316C187.534 183.679 187.632 183.819 187.729 185.006C187.868 186.529 187.854 190.79 187.715 190.79C187.646 190.79 185.946 188.946 183.927 186.697L180.25 182.617L179.066 182.533C177.409 182.407 175.779 182.393 175.668 182.505Z" fill="white"/>
<path d="M91.504 182.743C91.3926 183.036 91.5318 183.204 91.9636 183.316C92.1864 183.357 92.4928 183.497 92.6739 183.609L92.9803 183.805V188.82C92.9803 194.381 93.036 194.087 92.0332 194.437C91.7407 194.534 91.5875 194.688 91.5875 194.856C91.5875 194.995 91.6293 195.121 91.699 195.121C91.7547 195.135 93.9831 195.149 96.6711 195.163L101.532 195.191L101.657 194.632C101.713 194.325 101.894 193.528 102.061 192.858C102.214 192.187 102.298 191.573 102.242 191.503C102.047 191.181 101.741 191.377 101.42 192.034C100.585 193.682 100.055 194.003 98.1474 194.003C96.8661 194.003 96.7407 193.976 96.5457 193.696C96.3507 193.431 96.3229 192.718 96.3229 188.764C96.3229 183.609 96.2811 183.819 97.3117 183.316C97.646 183.162 97.9246 182.938 97.9246 182.827C97.9246 182.519 91.6154 182.435 91.504 182.743Z" fill="white"/>
<path d="M83.1893 198.824C82.2283 199.159 81.5598 200.039 81.5598 200.947C81.5598 201.506 82.4093 204.873 83.1057 207.08C83.426 208.114 83.6628 208.981 83.635 209.009C83.6071 209.036 78.2172 211.845 71.6712 215.24C29.3038 237.244 13.0225 245.767 8.56573 248.239C7.22869 248.98 -0.0553921 253.562 0.000317865 253.618C0.0421004 253.674 8.76071 250.335 11.017 249.399C16.5601 247.122 36.3789 238.809 73.4818 223.203C81.1837 219.976 87.4929 217.391 87.5207 217.461C87.6321 217.796 89.5681 220.94 90.5848 222.435C93.9692 227.436 98.426 232.229 102.98 235.791L103.454 236.154L99.6516 242.637C97.5764 246.2 93.997 252.291 91.7268 256.175C81.6572 273.346 74.2617 286.157 72.6044 289.287C71.9498 290.53 71.0863 292.388 69.8467 295.252C69.7075 295.588 69.61 295.853 69.6378 295.853C69.8328 295.853 74.1225 290.893 75.7241 288.826C79.3314 284.173 88.6349 271.697 106.81 247.164C109.039 244.16 110.933 241.631 111.03 241.519C111.184 241.338 111.546 241.477 113.551 242.455C119.61 245.389 125.682 247.22 132.103 248.03C133.732 248.225 134.066 248.309 134.066 248.505C134.066 249.497 136.225 324.899 136.852 345.66C137.562 369.132 137.632 370.724 138.105 374.552C138.342 376.411 138.565 377.947 138.593 377.989C138.635 378.017 138.662 377.989 138.662 377.919C138.662 377.85 138.857 376.341 139.08 374.58C139.317 372.806 139.568 370.291 139.637 368.992C139.986 363.11 142.437 306.862 144.721 252.333C144.763 251.327 144.832 250 144.874 249.385L144.958 248.239L146.086 248.142C152.27 247.611 160.557 245.138 166.476 242.064L168.05 241.254L169.763 243.587C193.704 275.986 200.501 285.095 204.177 289.706C205.361 291.201 209.372 295.713 209.498 295.713C209.679 295.713 207.172 290.181 206.113 288.253C203.328 283.125 197.228 272.577 185.431 252.543C176.545 237.44 175.807 236.182 175.877 236.14C182.339 230.873 187.019 225.536 190.682 219.249C191.295 218.202 191.852 217.349 191.907 217.335C191.963 217.335 198.579 220.116 206.601 223.497C244.358 239.466 261.392 246.619 267.729 249.175C270.779 250.405 277.589 252.654 277.756 252.487C277.826 252.417 272.464 249.106 270.751 248.17C266.768 245.99 247.269 235.791 211.684 217.265C202.854 212.669 195.626 208.855 195.626 208.771C195.626 208.701 195.905 207.779 196.239 206.731C196.573 205.683 197.047 203.965 197.297 202.903C197.715 201.171 197.743 200.933 197.59 200.402C197.367 199.662 196.671 198.963 195.974 198.768C195.57 198.656 179.693 198.614 139.568 198.614C92.6321 198.628 83.635 198.656 83.1893 198.824ZM195.682 200.654C195.807 200.766 195.905 200.919 195.905 200.989C195.905 201.408 194.679 205.851 194.08 207.611C193.69 208.743 193.425 209.735 193.495 209.791C193.551 209.847 197.687 212.026 202.659 214.611C207.645 217.21 214.038 220.535 216.879 222.016L222.046 224.712L228.23 228.931C233.62 232.62 235.124 233.668 234.553 233.374C234.275 233.22 191.378 215.114 191.197 215.072C191.1 215.044 190.584 215.798 189.971 216.916C186.267 223.566 181.211 229.546 175.292 234.254C174.414 234.953 173.648 235.568 173.579 235.623C173.523 235.679 174.178 236.909 175.027 238.376C176.49 240.863 176.81 241.575 180.737 250.922C183.022 256.385 184.874 260.855 184.86 260.883C184.832 260.897 182.882 258.299 180.515 255.085C172.033 243.601 168.579 238.991 168.481 238.991C168.439 238.991 167.646 239.396 166.726 239.899C160.111 243.489 152.757 245.711 145 246.437L143.189 246.605L143.147 247.164C143.133 247.471 142.743 256.524 142.284 267.282C141.824 278.04 141.253 291.634 141.002 297.502C140.752 303.369 140.501 308.05 140.445 307.91C140.403 307.77 139.498 299.611 138.454 289.776L136.546 271.893L136.211 260.506C136.03 254.247 135.863 248.561 135.849 247.862L135.807 246.619L133.509 246.367C126.351 245.599 120.097 243.741 113.593 240.43C110.891 239.06 110.738 239.005 110.515 239.228C110.376 239.368 106.685 244.314 102.312 250.237C97.9246 256.147 94.2477 261.093 94.1363 261.205C93.9692 261.386 93.9552 261.372 94.0666 261.065C94.5402 259.849 101.685 242.888 101.95 242.358C102.131 242.008 103.078 240.36 104.039 238.711L105.794 235.707L105.348 235.358C98.2588 229.867 93.1335 223.958 89.192 216.749C88.7185 215.882 88.3146 215.142 88.2867 215.114C88.2728 215.086 87.2282 215.477 85.9887 216.008C77.8968 219.389 44.8329 233.304 44.7215 233.36C44.0669 233.723 45.7104 232.564 50.78 229.099L56.6992 225.061L68.4679 218.942C81.6294 212.11 85.7798 209.931 85.8633 209.847C85.8912 209.819 85.5569 208.743 85.1391 207.458C84.3592 205.152 83.3703 201.52 83.3703 200.989C83.3703 200.849 83.4817 200.654 83.621 200.584C83.7742 200.486 102.019 200.444 139.665 200.43C190.208 200.43 195.487 200.444 195.682 200.654Z" fill="white"/>
<path d="M149.498 208.352C149.15 208.757 146.183 213.563 146.183 213.731C146.183 213.829 146.643 213.856 147.66 213.787L149.122 213.689L149.08 214.29C149.038 214.82 148.983 214.918 148.579 215.086C147.757 215.463 148.133 215.589 150.013 215.589C151.894 215.589 152.27 215.463 151.448 215.086C151.044 214.918 150.988 214.82 150.947 214.29L150.905 213.703H151.448C151.908 213.703 152.019 213.647 152.089 213.381C152.214 212.878 152.2 212.864 151.545 212.864H150.919V211.984C150.919 210.755 150.765 210.587 149.874 210.811L149.178 210.978L149.136 211.914L149.094 212.864H148.272C147.813 212.864 147.437 212.809 147.437 212.739C147.437 212.669 148.036 211.663 148.76 210.517C149.484 209.358 150.083 208.338 150.083 208.254C150.083 208.03 149.735 208.086 149.498 208.352Z" fill="white"/>
<path d="M129.596 208.534C128.983 208.855 128.356 209.567 128.356 209.945C128.356 210.322 128.621 210.266 129.192 209.791C129.805 209.26 130.598 209.218 130.919 209.679C131.239 210.14 131.197 211.146 130.807 211.956C130.626 212.334 129.972 213.228 129.345 213.926C128.732 214.639 128.217 215.31 128.217 215.435C128.217 215.645 128.468 215.659 130.529 215.631L132.841 215.589L133.161 214.569C133.523 213.409 133.398 213.158 132.827 213.857C132.451 214.304 132.409 214.318 131.1 214.373C130.348 214.401 129.749 214.387 129.749 214.345C129.749 214.29 130.278 213.731 130.919 213.102C132.2 211.859 132.66 211.062 132.674 210.126C132.674 209.47 132.228 208.701 131.699 208.436C131.197 208.184 130.167 208.226 129.596 208.534Z" fill="white"/>
<path d="M135.515 208.52C134.498 209.134 133.927 210.406 133.927 212.026C133.927 213.158 134.192 214.108 134.693 214.779C135.125 215.324 136.002 215.799 136.643 215.799C137.172 215.799 138.091 215.365 138.481 214.946C139.359 213.982 139.721 212.026 139.289 210.545C138.844 209.009 138.008 208.254 136.713 208.254C136.197 208.254 135.793 208.338 135.515 208.52ZM136.935 208.925C137.841 209.526 138.105 213.717 137.312 214.793C136.949 215.282 136.796 215.31 136.378 214.932C135.696 214.332 135.39 211.929 135.738 210.07C135.933 209.037 136.42 208.576 136.935 208.925Z" fill="white"/>
<path d="M141.908 208.547C141.225 208.883 140.612 209.539 140.612 209.945C140.612 210.266 140.933 210.294 141.183 209.986C141.685 209.386 142.771 209.19 143.161 209.623C143.509 210 143.467 211.23 143.105 211.984C142.952 212.32 142.284 213.186 141.629 213.926C140.891 214.765 140.473 215.323 140.529 215.463C140.598 215.631 140.974 215.659 142.855 215.631L145.111 215.589L145.431 214.569C145.779 213.409 145.654 213.158 145.069 213.856C144.693 214.318 144.665 214.332 143.412 214.373C142.715 214.401 142.144 214.387 142.144 214.332C142.144 214.262 142.674 213.675 143.3 213.018C144.637 211.621 145.013 210.881 144.888 209.833C144.832 209.302 144.721 209.078 144.317 208.715C143.899 208.324 143.718 208.254 143.161 208.254C142.757 208.254 142.256 208.38 141.908 208.547Z" fill="white"/>
<path d="M201.308 199.55C201.197 199.69 201.03 200.374 200.946 201.073C200.737 202.722 200.25 204.608 199.595 206.368C199.219 207.36 199.108 207.807 199.205 207.961C199.289 208.086 199.902 208.366 200.584 208.603C201.796 209.022 202.228 209.232 204.47 210.545C206.002 211.439 207.255 211.817 208.648 211.803C209.595 211.803 210.013 211.705 211.503 211.188C213.091 210.615 213.356 210.573 214.498 210.587C215.793 210.601 216.851 210.853 218.955 211.677C219.707 211.97 220.25 212.082 221.322 212.124C222.562 212.194 222.826 212.152 223.801 211.831C225.487 211.258 227.13 210.084 228.105 208.757C228.871 207.695 228.453 207.136 227.367 207.765C225.668 208.743 223.342 208.967 221.42 208.31C219.804 207.779 218.968 207.22 217.325 205.628C215.487 203.853 214.707 203.448 213.244 203.462C212.715 203.462 211.893 203.574 211.434 203.699C210.988 203.825 210.222 203.923 209.748 203.923C208.774 203.923 208.718 203.881 206.503 201.855C205.152 200.626 204.136 199.927 203.175 199.55C202.395 199.243 201.573 199.243 201.308 199.55ZM203.481 200.724C204.177 201.073 205.013 201.73 206.67 203.252C208.509 204.957 209.303 205.18 211.615 204.622C213.941 204.063 214.651 204.314 216.893 206.466C218.509 208.017 219.317 208.561 220.974 209.162C222.269 209.637 224.386 209.777 225.542 209.47C225.932 209.358 226.266 209.316 226.266 209.358C226.266 209.511 224.567 210.573 223.899 210.825C222.882 211.23 221.782 211.356 220.737 211.188C218.899 210.895 217.492 210.07 215.514 208.17C213.509 206.214 212.409 205.823 210.389 206.368C209.971 206.48 209.247 206.619 208.774 206.661C207.576 206.787 206.963 206.48 205.222 204.831C204.428 204.091 203.314 203.197 202.757 202.833L201.726 202.177L201.824 201.548C202.005 200.165 202.005 200.165 202.464 200.291C202.687 200.36 203.147 200.542 203.481 200.724Z" fill="white"/>
<path d="M76.128 199.955C75.5152 200.081 74.3314 200.137 72.4372 200.109C70.0417 200.081 69.5264 200.123 68.7743 200.346C67.5069 200.724 66.4623 201.464 65.1949 202.861C63.454 204.761 62.3537 205.306 59.3175 205.753C58.3147 205.893 57.1448 206.144 56.7131 206.298C54.8886 206.997 53.4401 208.366 52.5209 210.266C51.8942 211.579 51.5181 213.172 51.741 213.647C51.9917 214.22 52.3398 214.052 52.9944 213.06C54.3593 210.978 56.5738 209.903 59.4847 209.903C60.6406 209.903 61.1002 209.973 62.2005 210.322C65.5849 211.384 66.7409 211.23 68.7882 209.4C70.4177 207.961 70.9331 207.849 73.3425 208.52C76.0723 209.288 77.4372 209.414 78.7603 209.009C79.8049 208.701 79.8884 208.422 79.3592 207.025C78.8021 205.544 78.245 203.308 78.0222 201.576C77.7715 199.62 77.7715 199.606 76.128 199.955ZM73.7603 205.46C75.1113 205.837 76.5041 206.103 77.6461 206.186C78.0779 206.228 78.1336 206.284 78.44 207.136C78.621 207.625 78.7325 208.072 78.6907 208.114C78.6489 208.156 78.0361 208.198 77.3397 208.226C76.2116 208.268 75.7798 208.198 73.83 207.709C72.6044 207.388 71.3787 207.136 71.1141 207.136C70.3899 207.136 69.3592 207.681 68.1615 208.701C66.3509 210.252 65.4178 210.392 62.688 209.498C59.3872 208.436 55.8496 208.981 53.649 210.923C53.3008 211.23 53.0084 211.453 53.0084 211.398C53.0084 211.076 54.0251 209.47 54.6379 208.799C56.5738 206.717 59.3454 206.214 62.869 207.332C64.0807 207.723 64.6796 207.835 65.4456 207.835C66.6712 207.835 67.2423 207.583 68.4679 206.564C70.6684 204.705 70.8495 204.664 73.7603 205.46Z" fill="white"/>
<path d="M85.2088 224.377C83.5514 225.578 81.7687 226.528 79.3314 227.506C76.1977 228.75 74.6239 229.686 73.1336 231.223C71.5877 232.815 70.8774 234.213 69.9581 237.482C69.1782 240.206 68.3843 241.589 66.5041 243.406C65.2924 244.565 64.5264 245.138 62.2702 246.577C61.351 247.15 60.2368 247.96 59.7911 248.365C56.3928 251.411 54.9861 256.385 56.0724 261.512C56.3928 263.021 56.7967 263.845 57.2145 263.859C57.4652 263.859 57.7437 263.37 57.7437 262.937C57.7437 262.155 58.1476 260.38 58.6072 259.193C59.9582 255.672 63.4122 252.585 67.6183 251.132C68.0222 250.992 69.4707 250.712 70.8217 250.503C72.1726 250.307 73.6489 250.056 74.1085 249.944C75.5152 249.581 76.908 248.826 77.7715 247.96C78.7185 247.01 79.1085 246.367 79.9442 244.411C81.5458 240.639 82.0194 240.276 86.4344 239.48C90.7101 238.711 92.7296 238.096 94.3173 237.049C95.3062 236.42 96.3229 235.33 96.3229 234.939C96.3229 234.757 95.724 234.045 94.6795 233.011C92.075 230.398 89.958 227.716 88.0917 224.684C87.4929 223.692 87.2422 223.399 86.9775 223.371C86.7269 223.343 86.2255 223.622 85.2088 224.377ZM94.0388 233.668L95.3898 234.995L94.7352 235.596C93.8995 236.35 92.1725 237.202 90.543 237.663C89.8605 237.859 88.1057 238.236 86.6433 238.502C83.6071 239.061 82.9107 239.242 82.0611 239.745C81.128 240.29 80.5013 241.128 79.596 243.042C78.0779 246.228 77.8968 246.535 77.103 247.303C75.7102 248.631 74.6378 249.022 70.9331 249.553C68.3008 249.93 67.2423 250.195 65.7242 250.88C61.3788 252.836 58.2451 256.357 57.2423 260.422L56.9916 261.414L56.8524 260.855C56.7827 260.548 56.7131 259.291 56.7131 258.061C56.727 255.463 56.9499 254.401 57.8969 252.417C58.5933 250.978 59.8329 249.679 61.6434 248.463C64.1504 246.801 65.6546 246.256 68.9832 245.767C70.3481 245.557 71.8384 245.306 72.298 245.194C74.5264 244.621 76.2255 243.28 77.1308 241.366C77.4094 240.793 77.9525 239.647 78.3286 238.837C79.1921 237.021 79.9859 236.099 81.1141 235.596C81.6294 235.358 82.8829 235.051 84.6377 234.729C88.621 234.003 90.919 233.332 92.075 232.564C92.3118 232.41 92.5346 232.298 92.5903 232.326C92.6321 232.34 93.2867 232.955 94.0388 233.668Z" fill="white"/>
<path d="M192.478 223.483C192.325 223.539 191.657 224.405 191.002 225.383C189.233 228.051 187.618 229.993 185.153 232.452C183.439 234.157 182.98 234.701 183.049 234.897C183.105 235.037 183.941 235.931 184.902 236.895C186.476 238.446 186.866 238.949 188.453 241.352C192.228 247.094 194.303 248.393 200.487 248.91C204.191 249.217 206.225 250.377 210.111 254.345C213.119 257.432 214.804 258.466 217.757 259.025C220.584 259.57 224.233 259.011 226.963 257.642C228.077 257.083 228.481 256.678 228.258 256.343C228.133 256.133 227.84 256.105 226.113 256.091C223.899 256.077 222.729 255.868 221.085 255.183C218.871 254.275 216.406 252.221 214.86 250.028C213.829 248.561 213.439 247.737 212.548 245.138C211.657 242.539 211.434 242.064 210.57 240.835C209.386 239.172 208.008 238.39 205.027 237.733C202.785 237.23 201.364 236.629 200.765 235.945C200.222 235.33 199.623 234.045 198.411 230.957C197.325 228.149 196.35 226.389 195.236 225.145C194.052 223.846 193.063 223.245 192.478 223.483ZM193.467 224.74C195.055 225.844 196.364 228.065 198.091 232.634C199.762 237.063 200.528 237.705 205.166 238.697C207.771 239.256 209.428 240.402 210.445 242.33C210.709 242.833 211.281 244.286 211.712 245.557C212.645 248.267 213.008 249.008 214.08 250.517C216.824 254.373 220.682 256.72 224.734 256.971L226.058 257.055L225.445 257.321C222.868 258.41 218.69 258.592 216.294 257.684C214.024 256.846 210.849 253.73 209.47 250.978C209.205 250.461 208.676 249.106 208.3 247.974C207.339 245.152 206.782 244.062 205.765 242.972C204.679 241.799 203.509 241.212 201.336 240.737C196.824 239.745 196.253 239.242 194.581 234.799C193.286 231.39 192.52 229.867 191.322 228.331C190.877 227.744 190.737 227.464 190.821 227.325C190.905 227.227 191.364 226.514 191.866 225.732C192.367 224.964 192.785 224.321 192.813 224.321C192.84 224.321 193.133 224.516 193.467 224.74Z" fill="white"/>
<path d="M111.963 245.725C111.81 245.906 111.392 246.856 111.016 247.862C110.125 250.321 109.22 252.068 107.785 254.191C104.387 259.179 103.551 260.646 102.813 262.895C101.685 266.318 101.824 269.112 103.342 273.89C104.61 277.858 104.707 280.149 103.76 283.964C103.315 285.752 102.702 287.387 101.546 289.845C99.958 293.213 99.387 295.448 99.387 298.228C99.387 302.545 101.128 306.862 104.345 310.593C105.515 311.948 107.34 313.457 107.799 313.457C108.496 313.457 108.482 313.163 107.757 311.626C106.476 308.93 105.933 306.639 105.933 303.886C105.933 300.17 107.186 296.272 109.54 292.682C110.64 291.033 111.434 290.167 113.802 288.099C117.966 284.453 119.262 282.664 119.805 279.814C120.083 278.333 120.055 277.649 119.568 274.757C119.22 272.647 119.15 271.879 119.192 270.565C119.262 268.051 119.275 268.037 123.76 263.58C127.534 259.822 128.287 259.011 129.289 257.502C130.933 255.043 131.727 252.291 131.002 251.565C130.696 251.257 130.738 251.271 128.495 250.866C123.927 250.028 118.788 248.337 114.094 246.13C113.259 245.739 112.507 245.417 112.409 245.417C112.326 245.417 112.117 245.557 111.963 245.725ZM127.938 251.704C129.122 251.942 130.167 252.151 130.25 252.193C130.543 252.291 130.181 253.828 129.554 255.127C128.37 257.614 126.782 259.458 121.657 264.348C118.732 267.142 118.259 268.078 118.273 271.054C118.273 272.396 118.37 273.401 118.649 274.91C119.067 277.174 119.122 278.738 118.83 279.996C118.245 282.441 117.075 284.033 113.593 287.051C110.139 290.055 108.663 291.899 107.117 295.085C104.721 300.058 104.345 304.836 105.989 309.712C106.685 311.808 106.615 311.836 105.069 310.02C102.674 307.198 101.156 304.208 100.585 301.162C100.306 299.709 100.306 298.885 100.585 297.236C101.058 294.428 102.284 291.452 104.039 288.798C105.195 287.065 106.142 286.045 108.37 284.131C112.019 281.002 113.301 279.395 113.997 277.09C114.512 275.399 114.512 274.31 114.011 271.348C113.287 267.003 113.412 265.214 114.568 263.482C114.819 263.119 115.905 261.959 116.991 260.939C121.782 256.357 123.454 254.429 124.61 252.221C125.097 251.271 125.222 251.131 125.473 251.201C125.64 251.243 126.754 251.467 127.938 251.704Z" fill="white"/>
<path d="M165.751 246.06C161.74 248.016 156.197 249.776 151.142 250.67C148.245 251.187 148.342 251.062 149.011 253.632C149.874 256.916 149.958 257.656 150.083 262.602C150.181 266.15 150.264 267.492 150.487 268.763C150.835 270.775 151.545 272.787 152.409 274.254C153.272 275.721 155.724 278.208 157.882 279.814C160.417 281.714 161.768 283.265 163.022 285.752C164.122 287.959 164.874 290.446 165.403 293.618C166.002 297.236 166.838 299.513 168.37 301.791C169.192 302.992 171.058 304.892 172.339 305.814C175.139 307.84 179.052 309.307 182.464 309.601C183.746 309.726 184.261 309.573 184.317 309.084C184.359 308.762 184.261 308.665 183.481 308.273C180.974 307.016 178.398 304.767 176.921 302.545C174.804 299.332 173.802 296.021 173.662 291.648C173.579 289.133 173.634 288.7 174.595 284.676C175.64 280.345 175.724 278.082 174.944 275.888C174.331 274.184 173.718 273.332 171.35 270.859C167.283 266.611 167.186 266.206 168.523 259.528C168.941 257.418 169.359 254.988 169.456 254.149C169.93 249.623 168.857 245.347 167.242 245.431C167.116 245.431 166.448 245.711 165.751 246.06ZM167.855 247.15C168.356 248.239 168.607 249.804 168.607 251.76C168.607 253.996 168.453 255.141 167.604 259.319C166.712 263.747 166.615 265.186 167.102 266.598C167.59 267.995 168.398 269.098 170.626 271.404C173.091 273.974 173.76 274.952 174.261 276.782C174.79 278.71 174.637 280.638 173.676 284.578C173.342 285.961 172.966 287.61 172.854 288.267C172.353 291.117 172.813 295.448 173.927 298.633C175.236 302.364 177.854 305.8 180.988 307.868C181.601 308.273 182.116 308.623 182.116 308.637C182.116 308.72 180.347 308.371 179.247 308.078C176.058 307.24 172.618 305.256 170.654 303.132C168.69 301.008 167.297 297.041 166.921 292.612C166.726 290.125 166.88 288.616 167.715 285.235C168.843 280.611 168.997 278.878 168.467 276.796C167.994 274.896 167.381 273.96 165.083 271.557C162.673 269.042 162.102 268.33 161.476 267.003C161.044 266.067 161.016 265.955 161.03 264.488C161.044 263.258 161.169 262.406 161.629 260.227C162.576 255.784 162.785 254.261 162.799 251.914C162.799 250.754 162.729 249.511 162.646 249.148C162.52 248.477 162.52 248.463 162.882 248.337C163.077 248.267 164.122 247.806 165.194 247.317C166.267 246.828 167.228 246.423 167.325 246.409C167.423 246.395 167.66 246.731 167.855 247.15Z" fill="white"/>
</svg>
