<svg width="510" height="694" viewBox="0 0 510 694" fill="none" xmlns="http://www.w3.org/2000/svg">
<path d="M253.263 6.22523C252.88 9.50437 252.523 13.0909 252.446 14.2181C252.114 19.0344 250.046 89.4847 247.466 182.402C246.904 202.769 246.342 222.931 246.189 227.234C246.062 231.538 245.934 235.765 245.934 236.636V238.225L245.117 238.353C244.657 238.43 242.844 238.66 241.082 238.916C229.794 240.402 217.918 244.091 207.345 249.394L204.077 251.034L189.826 231.897C168.119 202.718 140.869 166.314 137.728 162.266C135.481 159.371 129.045 151.763 127.257 149.867C126.568 149.15 131.675 159.986 133.897 163.957C138.699 172.591 151.595 194.853 176.853 238.122C183.85 250.086 189.596 260.026 189.673 260.154C189.724 260.308 188.268 261.691 186.43 263.202C177.108 270.965 168.348 281.366 162.066 292.1C161.274 293.483 160.559 294.611 160.483 294.611C160.329 294.611 159.946 294.457 115.05 275.525C56.9248 251.034 26.3555 238.225 18.0555 234.869C14.9909 233.665 0.944879 228.746 0.842726 228.874C0.79165 228.925 3.88178 230.847 7.71253 233.203C17.4426 239.121 20.3029 240.633 130.884 298.197C143.372 304.679 153.638 310.033 153.664 310.084C153.715 310.11 153.332 311.339 152.821 312.825C151.314 317.308 150.114 322.201 150.293 323.124C150.548 324.379 151.544 325.737 152.54 326.198C153.357 326.608 161.07 326.633 256.2 326.633H358.941L359.809 326.095C360.984 325.378 361.546 324.661 361.852 323.38C362.082 322.483 362.031 321.894 361.367 319.409C360.958 317.821 360.167 315.08 359.605 313.312C359.043 311.57 358.609 310.11 358.634 310.084C358.66 310.058 370.765 303.782 385.501 296.148C485.458 244.322 495.443 239.044 503.692 233.588C506.884 231.461 509.489 229.694 509.489 229.643C509.489 229.617 506.808 230.488 503.564 231.564C497.103 233.741 491.689 235.893 470.543 244.732C450.7 253.006 357.306 292.331 353.22 294.124C352.607 294.38 351.969 294.611 351.816 294.611C351.662 294.611 351.228 293.996 350.82 293.253C348.547 288.872 342.826 280.751 338.306 275.525C335.216 271.938 328.831 265.662 325.307 262.767L322.574 260.513L323.8 258.412C372.578 175.05 377.022 167.339 382.462 156.451C384.505 152.378 386.139 149.022 386.088 148.97C385.986 148.868 378.299 157.783 375.617 161.139C370.637 167.364 356.259 186.527 329.7 222.367C313.534 244.168 308.784 250.547 308.477 250.906C308.375 251.008 306.919 250.419 305.259 249.574C294.303 243.989 281.79 240.172 269.225 238.609C267.463 238.404 265.956 238.173 265.905 238.122C265.777 237.994 260.823 125.683 259.852 101.064C258.141 57.0776 256.66 23.0821 256.149 15.6271C255.945 12.4505 254.31 0.614821 254.029 0.358637C254.004 0.307401 253.646 2.94609 253.263 6.22523ZM260.108 184.042C261.436 214.451 262.534 239.787 262.534 240.3V241.273L264.27 241.453C276.069 242.554 285.212 244.68 294.967 248.549C298.517 249.958 304.314 252.725 307.175 254.339C308.222 254.928 309.167 255.363 309.269 255.286C309.397 255.21 316.241 246.038 324.49 234.92C332.739 223.802 339.532 214.733 339.583 214.758C339.608 214.81 336.339 222.726 332.304 232.384C325.077 249.599 324.873 250.009 321.604 255.645L318.258 261.358L320.71 263.305C331.947 272.092 341.651 283.467 348.47 295.815L350.181 298.94L351.382 298.453C352.02 298.197 361.98 294.021 373.498 289.154C399.368 278.24 429.324 265.611 430.704 265.047C431.265 264.791 431.623 264.714 431.47 264.842C431.342 264.97 426.285 268.454 420.284 272.579L409.353 280.034L384.147 293.125C352.301 309.623 354.421 308.496 354.625 308.957C355.212 310.443 357.613 318 358.149 320.075C358.634 321.971 358.737 322.714 358.532 322.97C358.098 323.482 154.2 323.482 153.766 322.944C153.357 322.458 154.302 318.717 156.192 313.184C156.958 310.929 157.622 308.931 157.648 308.752C157.673 308.547 146.718 302.706 129.862 293.919L102.025 279.419L91.376 272.143C85.5022 268.121 80.701 264.816 80.701 264.74C80.701 264.611 78.4281 263.664 120.541 281.417C141.814 290.384 159.87 297.992 160.661 298.325L162.117 298.914L163.573 296.173C167.94 288.078 173.686 280.29 180.556 273.245C184.719 268.967 188.754 265.354 192.074 262.895C193.427 261.896 194.04 261.307 193.938 261.051C193.861 260.846 192.482 258.386 190.848 255.568C188.039 250.752 187.502 249.574 180.53 232.922C176.47 223.264 173.201 215.322 173.226 215.296C173.277 215.245 180.019 224.237 188.217 235.279L203.132 255.338L207.499 253.083C212.836 250.316 216.667 248.651 221.979 246.832C229.334 244.296 238.681 242.272 246.138 241.632C247.568 241.504 248.845 241.324 248.922 241.222C249.101 241.043 249.305 234.869 250.122 205.971L250.505 192.265L254.029 159.218C255.97 141.029 257.579 126.734 257.63 127.451C257.656 128.143 258.78 153.607 260.108 184.042Z" fill="white"/>
<path d="M313.61 118.997C313.329 119.33 313.508 119.868 314.581 122.148C317.084 127.477 317.824 130.679 317.824 136.289C317.824 140.645 317.467 142.899 316.139 146.921C314.53 151.84 311.108 157.758 308.043 160.96C307.098 161.933 304.774 164.085 302.884 165.751C296.857 170.977 294.406 174.076 293.052 178.175C291.954 181.403 291.928 184.273 292.899 189.909C293.767 194.955 293.92 198.465 293.333 200.463C292.72 202.436 291.264 204.357 287.97 207.508C282.581 212.632 278.036 217.32 276.529 219.293C273.49 223.289 271.472 227.798 271.472 230.539C271.472 232.333 272.008 232.717 275.303 233.255C283.296 234.561 293.205 237.712 301.965 241.734C303.906 242.631 305.745 243.374 306.077 243.374C306.843 243.374 307.175 242.81 308.605 238.891C310.316 234.254 312.385 230.386 315.832 225.441C322.064 216.475 324.107 212.017 324.847 205.818C325.332 201.847 324.515 196.749 322.421 190.6C319.408 181.711 320.378 173.846 325.996 161.882C327.963 157.732 328.984 154.709 329.546 151.43C331.181 141.772 327.631 131.268 319.918 123.045C317.697 120.714 315.092 118.613 314.377 118.613C314.121 118.613 313.789 118.792 313.61 118.997ZM321.834 128.015C325.716 133.395 328.014 139.671 328.014 144.744C328.014 151.584 324.107 161.216 318.795 167.493C318.156 168.236 315.602 170.618 313.125 172.796C306.638 178.432 304.493 181.122 303.242 185.067C302.195 188.372 302.169 190.652 303.14 196.364C303.829 200.438 303.931 201.719 303.855 204.178C303.753 206.868 303.676 207.278 302.884 208.917C301.99 210.813 301.403 211.428 292.49 220.113C288.098 224.416 285.263 227.926 283.628 231.077C283.092 232.128 282.607 233.024 282.607 233.05C282.581 233.075 281.739 232.896 280.743 232.64C279.721 232.384 277.729 231.948 276.273 231.718C274.818 231.462 273.49 231.128 273.311 230.949C272.8 230.488 273.515 227.721 274.767 225.262C276.937 220.958 279.619 217.756 286.744 211.069C294.406 203.819 295.299 202.333 295.299 196.749C295.299 194.417 295.146 192.624 294.686 190.216C294.227 187.68 294.074 186.04 294.099 183.427C294.099 180.276 294.176 179.815 294.789 178.175C296.27 174.435 298.16 172.155 304.314 166.75C310.52 161.319 312.895 158.321 315.781 152.301C320.327 142.873 320.863 133.856 317.441 124.428C317.007 123.301 316.675 122.302 316.675 122.225C316.726 121.892 320.506 126.17 321.834 128.015Z" fill="white"/>
<path d="M174.35 126.145C173.558 126.939 173.712 127.118 177.108 129.014C187.732 134.983 193.836 146.383 193.836 160.268C193.836 163.266 193.427 165.802 192.201 170.618C189.928 179.482 189.775 183.735 191.614 188.243C192.763 191.113 193.912 192.701 197.666 196.595C203.642 202.795 204.332 203.947 204.511 207.765C204.587 209.916 204.46 210.941 203.285 216.731C201.65 224.826 201.242 227.772 201.242 231.743C201.242 235.253 201.727 238.353 202.672 240.658C203.898 243.681 204.868 243.989 208.086 242.375C214.905 238.968 225.988 235.432 234.697 233.895C236.459 233.588 238.145 233.306 238.451 233.229C238.783 233.178 239.217 232.845 239.422 232.512C239.779 231.974 239.754 231.718 239.141 229.386C237.327 222.546 237.251 221.855 236.995 212.76C236.766 204.024 236.408 200.617 235.31 196.851C233.471 190.421 230.202 186.194 222.822 180.583C217.637 176.638 215.543 174.205 213.066 169.209C211.125 165.315 209.925 161.267 208.75 154.581C207.243 145.871 204.741 140.747 199.48 135.572C194.015 130.192 185.051 126.273 177.21 125.863C175.142 125.735 174.708 125.786 174.35 126.145ZM181.501 128.117C188.268 129.577 194.168 132.703 198.586 137.16C200.603 139.21 201.063 139.825 202.187 142.182C203.719 145.358 204.613 147.971 205.379 151.507C205.864 153.71 205.941 154.914 205.966 159.602V165.11L204.638 170.49C202.876 177.586 202.698 178.765 202.825 182.351C203.055 187.885 204.204 190.139 209.797 195.98C213.73 200.053 215.62 202.564 216.463 204.818C217.28 206.996 217.076 209.968 215.594 217.243C214.879 220.702 214.164 224.493 213.985 225.697C213.602 228.208 213.526 233.767 213.832 236.226L214.037 237.892L211.406 239.019C209.95 239.634 208.112 240.453 207.32 240.863C205.251 241.888 204.996 241.837 204.306 240.274C203.362 238.045 202.978 235.586 202.978 231.718C202.978 227.567 203.387 224.647 204.97 216.987C207.448 205.177 207.013 203.742 198.177 194.571C195.598 191.907 194.755 190.831 193.887 189.114C191.41 184.349 191.435 180.865 193.938 170.644C195.496 164.316 195.802 161.626 195.419 156.989C194.73 148.868 192.431 142.156 188.473 136.827C186.583 134.291 182.727 130.602 180.224 128.911C179.126 128.168 178.411 127.579 178.615 127.579C178.845 127.579 180.147 127.81 181.501 128.117Z" fill="white"/>
<path d="M406.902 210.019C406.519 210.326 406.314 211.069 406.085 212.76C405.446 217.628 403.403 221.855 400.007 225.441C397.453 228.157 395.001 229.899 391.196 231.718C388.055 233.203 386.446 233.639 381.415 234.279C375.541 235.048 372.297 236.278 369.846 238.609C367.93 240.428 367.139 241.658 365.606 245.27C363.385 250.496 361.903 252.315 359.12 253.211C358.456 253.416 355.902 253.954 353.45 254.415C345.635 255.824 342.111 256.926 338.97 258.975C337.131 260.18 335.573 261.87 335.573 262.69C335.573 263.151 336.442 264.176 338.715 266.482C343.465 271.247 347.449 276.268 350.615 281.545C351.918 283.672 352.275 284.107 352.837 284.107C352.99 284.107 354.216 283.313 355.544 282.339C359.018 279.803 361.495 278.445 365.581 276.806C367.547 276.012 369.973 274.961 370.995 274.475C375.566 272.297 379.346 268.864 381.236 265.226C382.181 263.356 383.815 258.745 384.224 256.695C384.479 255.466 385.909 252.392 386.88 250.957C388.974 247.934 392.958 244.424 397.325 241.811C403.965 237.815 407.387 233.511 409.175 226.953C409.686 225.057 409.762 224.211 409.762 220.061C409.762 215.091 409.43 212.991 408.332 210.787C407.719 209.583 407.489 209.455 406.902 210.019ZM408.179 220.061C408.204 224.468 407.694 227.029 406.059 230.514C405.165 232.384 404.68 233.05 402.765 234.92C400.262 237.354 397.223 239.352 393.877 240.812C391.298 241.914 389.255 242.4 384.224 243.092C375.898 244.245 372.578 246.423 370.025 252.34C367.394 258.386 366.015 260.333 363.512 261.486C362.644 261.87 359.937 262.536 356.183 263.228C349.722 264.458 346.299 265.457 343.848 266.815L342.29 267.66L339.762 265.098L337.233 262.562L338.332 261.563C340.221 259.847 344.307 258.002 347.959 257.208C348.675 257.054 351.382 256.516 353.986 256.055C360.09 254.928 361.342 254.467 363.18 252.597C364.355 251.444 364.942 250.496 366.219 247.832C367.088 246.013 368.084 243.912 368.467 243.143C369.897 240.172 372.987 237.789 376.562 236.893C377.405 236.662 380.112 236.201 382.589 235.842C387.442 235.125 389.587 234.51 392.83 232.87C400.492 229.028 405.318 223.264 407.362 215.45L407.668 214.297L407.923 215.322C408.051 215.886 408.179 218.012 408.179 220.061Z" fill="white"/>
<path d="M105.473 218.294C100.11 218.96 93.7511 221.496 93.5213 223.084C93.4702 223.392 93.5979 223.699 93.7767 223.776C93.981 223.853 95.973 223.955 98.2203 224.006C101.464 224.058 102.638 224.186 104.145 224.647C109.304 226.184 114.156 229.694 117.757 234.484C119.775 237.149 120.771 239.224 122.329 243.809C124.04 248.856 125.163 251.059 127.028 253.032C129.428 255.619 131.19 256.49 136.655 257.72C140.716 258.642 142.708 259.513 143.985 260.897C145.16 262.152 145.773 263.459 147.739 268.608C149.322 272.758 151.008 276.319 152.259 278.189C154.405 281.34 156.78 283.492 158.414 283.774C159.487 283.928 159.589 283.851 161.887 280.264C165.054 275.371 170.187 269.351 174.299 265.662C177.159 263.1 177.159 263.023 174.146 260.256C171.49 257.823 169.14 254.979 167.072 251.7C163.062 245.27 159.614 241.606 155.809 239.685C153 238.301 150.063 237.61 144.93 237.123C142.197 236.867 140.563 236.585 139.235 236.124C135.072 234.664 131.063 231.718 126.21 226.491C120.975 220.881 116.327 218.55 109.559 218.165C108.359 218.114 106.52 218.165 105.473 218.294ZM111.781 220.061C115.969 220.753 119.085 222.444 122.609 225.979C126.312 229.694 128.202 232.896 130.245 238.942C132.008 244.117 133.106 246.218 134.97 248.139C137.064 250.291 138.903 251.162 143.602 252.238C145.722 252.725 148.199 253.468 149.118 253.877C152.081 255.286 152.923 256.542 155.656 263.74C157.878 269.556 159.844 273.296 161.76 275.346C162.321 275.96 162.475 276.268 162.296 276.55C162.143 276.755 161.3 278.061 160.381 279.47C159.461 280.879 158.618 282.032 158.465 282.032C158.006 282.058 156.065 280.367 154.915 278.958C152.796 276.319 151.57 273.834 148.48 265.918C146.896 261.845 145.773 259.923 144.368 258.847C142.938 257.746 140.384 256.798 136.528 255.953C132.263 254.979 130.041 253.929 128.253 251.956C126.593 250.137 125.7 248.318 123.988 243.374C122.226 238.276 121.333 236.457 119.264 233.665C115.561 228.669 110.964 225.159 105.805 223.417C104.069 222.828 100.289 222.111 98.8588 222.111C97.7096 222.085 98.0927 221.855 100.442 221.086C103.966 219.933 108.487 219.523 111.781 220.061Z" fill="white"/>
<path d="M415.125 302.578C411.984 307.932 404.654 310.033 397.504 307.65C395.358 306.959 394.567 306.805 392.524 306.805C389.638 306.779 388.821 307.138 386.011 309.546C384.198 311.109 382.615 312.005 381.644 312.031C381.338 312.031 379.55 311.621 377.66 311.134C373.038 309.93 370.918 309.648 368.952 309.982C366.985 310.289 366.092 310.929 366.117 311.929C366.143 312.338 366.551 313.85 367.062 315.259C368.032 318.077 368.901 321.894 369.182 324.635C369.437 327.248 369.539 327.325 372.119 326.89C373.625 326.608 375.694 326.531 379.039 326.582C386.446 326.71 387.927 326.198 392.013 322.048C393.469 320.562 395.231 318.974 395.92 318.512C397.529 317.411 399.904 316.694 403.377 316.232C406.953 315.771 408.383 315.336 410.273 314.209C412.163 313.056 412.98 312.313 414.359 310.443C416.274 307.881 417.909 302.936 417.27 301.707C416.811 300.836 415.942 301.194 415.125 302.578ZM414.104 307.676C412.444 310.827 409.66 313.133 406.468 313.978C405.753 314.183 404.041 314.337 402.688 314.337C400.543 314.337 399.802 314.209 397.197 313.389C394.797 312.646 393.775 312.441 392.141 312.441C389.74 312.415 388.795 312.825 386.471 314.875C383.355 317.616 381.925 318.077 378.861 317.257C378.018 317.052 376.409 316.617 375.285 316.335C374.162 316.027 372.272 315.72 371.097 315.643L368.977 315.489L368.364 313.824C367.956 312.697 367.854 312.082 368.032 311.903C368.16 311.775 369.412 311.647 370.765 311.672C372.783 311.698 373.906 311.877 376.792 312.646C382.385 314.157 383.381 313.978 386.956 310.981C390.557 307.958 391.936 307.727 397.172 309.367C400.006 310.238 400.594 310.34 403.122 310.34C407.515 310.34 411.065 309.136 413.644 306.805C414.308 306.19 414.921 305.703 414.946 305.755C414.997 305.806 414.614 306.677 414.104 307.676Z" fill="white"/>
<path d="M102.817 304.73C100.774 305.268 98.4757 306.421 96.7391 307.804C92.704 311.006 91.8612 314.388 95.6154 312.39C99.676 310.212 103.915 310.238 108.461 312.466C110.045 313.235 111.041 314.004 113.313 316.181C117.732 320.434 119.647 321.1 124.295 319.998C128.509 319.025 128.968 319.178 133.182 323.047C136.17 325.814 138.035 327.095 140.026 327.761C142.759 328.683 143.168 328.324 143.653 324.84C144.113 321.612 144.981 318.307 146.207 314.977C147.305 312.031 147.254 311.852 144.726 311.134C142.938 310.622 140.793 309.597 137.651 307.676C132.825 304.755 129.326 304.422 123.759 306.395C120.822 307.445 120.592 307.471 118.37 307.368C116.455 307.266 115.433 307.035 112.241 305.908C107.823 304.371 105.422 304.064 102.817 304.73ZM108.819 306.549C111.653 307.394 113.543 308.598 116.531 311.467C120.72 315.489 122.226 316.053 126.338 315.131C129.147 314.49 131.267 314.439 132.314 314.977C132.723 315.208 134.357 316.54 135.915 317.949C138.341 320.178 141.125 322.278 142.018 322.586C142.248 322.663 141.891 326.07 141.61 326.326C141.38 326.557 139.107 325.583 137.805 324.712C137.064 324.225 135.251 322.688 133.795 321.356C132.339 319.998 130.679 318.666 130.118 318.359C128.866 317.718 126.491 317.667 124.218 318.282C121.869 318.897 119.749 318.82 118.268 318.077C117.604 317.718 115.969 316.386 114.641 315.08C111.015 311.493 108.563 310.135 104.324 309.315C102.434 308.931 101.77 308.906 100.136 309.136C99.063 309.315 97.9649 309.52 97.684 309.597C96.8668 309.853 98.68 308.368 100.085 307.573C102.664 306.19 106.163 305.754 108.819 306.549Z" fill="white"/>
<path d="M220.268 334.729C217.05 335.241 214.266 336.65 212.249 338.802C209.823 341.415 208.725 344.438 208.98 347.897C209.414 353.866 213.985 358.144 220.447 358.58C222.898 358.759 224.941 358.375 227.98 357.171C230.126 356.299 230.356 356.171 230.356 355.557C230.356 355.172 230.177 354.711 229.947 354.532C229.589 354.25 229.564 353.866 229.692 352.149C229.896 349.69 230.1 349.28 231.403 348.768C232.067 348.486 232.399 348.204 232.399 347.871C232.399 347.615 232.245 347.384 232.092 347.384C231.913 347.384 229.436 347.359 226.601 347.333C222.771 347.282 221.34 347.359 221.111 347.589C220.676 348.025 221.238 348.486 222.643 348.896C223.256 349.075 223.996 349.459 224.277 349.741C224.763 350.228 224.788 350.459 224.66 352.508C224.456 355.326 224.38 355.48 223.154 356.12C221.289 357.068 218.608 356.146 217.331 354.122C215.926 351.919 215.671 350.715 215.671 346.488C215.671 343.055 215.748 342.517 216.258 341.39C217.101 339.571 218.148 338.367 219.553 337.598C222.949 335.754 226.448 336.727 228.338 340.083C229.334 341.851 229.717 342.184 230.253 341.723C230.611 341.441 230.636 341.057 230.483 339.34C230.279 336.804 230.024 336.164 229.155 335.83C227.163 335.088 222.107 334.447 220.268 334.729Z" fill="white"/>
<path d="M256.711 334.959C254.336 335.472 252.497 336.42 250.888 337.957C249.279 339.468 248.462 340.749 247.747 342.799C245.117 350.484 250.071 357.862 258.32 358.58C266.033 359.22 271.983 353.815 271.983 346.18C271.983 340.672 268.127 336.189 262.355 334.959C260.235 334.498 258.831 334.498 256.711 334.959ZM260.363 336.65C261.793 337.035 263.606 338.982 264.321 340.877C266.084 345.54 265.93 351.714 263.989 354.686C262.713 356.658 260.031 357.427 258.014 356.402C255.026 354.865 253.468 350.612 253.646 344.541C253.723 341.518 253.8 341.21 254.566 339.622C255.919 336.881 257.758 335.933 260.363 336.65Z" fill="white"/>
<path d="M188.498 335.241C187.988 335.626 188.447 336.24 189.443 336.497C191.078 336.906 191.027 336.548 191.027 346.616C191.027 356.761 191.103 356.248 189.29 356.889C188.473 357.171 188.115 358.118 188.805 358.17C190.669 358.298 206.222 358.118 206.375 357.965C206.656 357.657 207.626 353.994 207.626 353.2C207.626 352.021 206.835 352.38 205.864 353.943C204.613 356.043 203.975 356.351 200.731 356.351C199.25 356.351 197.871 356.223 197.667 356.095C197.36 355.89 197.283 355.121 197.283 351.688V347.512L199.633 347.436L202.008 347.359L202.698 348.845C203.106 349.69 203.591 350.33 203.796 350.33C204.383 350.33 204.358 342.952 203.77 342.824C203.515 342.773 203.208 343.132 202.902 343.798C202.647 344.387 202.187 345.027 201.906 345.232C201.242 345.694 197.896 345.719 197.462 345.284C197.258 345.079 197.156 343.823 197.156 341.364C197.156 336.804 197.181 336.753 200.348 336.753C202.953 336.753 203.54 337.111 204.766 339.391C205.609 340.98 206.145 341.364 206.452 340.57C206.63 340.109 206.12 335.933 205.839 335.369C205.686 335.062 204.23 334.985 197.283 334.985C191.384 334.959 188.779 335.036 188.498 335.241Z" fill="white"/>
<path d="M233.956 335.241C233.395 335.651 233.905 336.189 235.208 336.599C235.77 336.753 236.332 337.111 236.485 337.393C236.638 337.675 236.74 341.185 236.74 346.616C236.74 352.047 236.638 355.557 236.485 355.838C236.332 356.12 235.77 356.479 235.208 356.633C234.084 356.966 233.548 357.452 233.803 357.888C233.905 358.042 236.025 358.144 239.83 358.144C245.704 358.144 245.704 358.144 245.627 357.58C245.576 357.196 245.244 356.94 244.529 356.684C243.967 356.504 243.355 356.146 243.201 355.915C242.946 355.582 242.869 353.302 242.869 346.616C242.869 339.929 242.946 337.649 243.201 337.316C243.355 337.086 243.967 336.727 244.529 336.548C245.219 336.292 245.576 336.01 245.627 335.651C245.704 335.113 245.653 335.113 240.035 335.036C236.076 334.985 234.237 335.036 233.956 335.241Z" fill="white"/>
<path d="M273.464 334.985C273.005 335.446 273.362 335.882 274.792 336.65C277.116 337.88 277.218 338.136 277.142 342.517C277.065 347.922 276.605 354.02 276.171 355.224C275.916 355.967 275.533 356.428 274.894 356.761C274.384 357.042 274.052 357.401 274.077 357.632C274.205 358.195 282.837 358.221 282.837 357.657C282.837 357.273 282.658 357.145 280.947 356.453C280.334 356.197 279.696 355.762 279.517 355.454C279.083 354.814 278.674 341.364 279.083 341.518C279.21 341.569 282.76 345.284 286.948 349.767C294.84 358.195 296.091 359.271 297.215 358.682C297.904 358.323 297.981 357.657 297.7 354.814C297.547 353.225 297.547 349.818 297.726 344.976C298.058 336.804 298.058 336.778 299.718 336.471C300.714 336.292 301.301 335.702 300.918 335.318C300.509 334.908 292.363 335.011 292.107 335.421C291.852 335.831 292.311 336.189 293.767 336.727C294.431 336.983 295.095 337.393 295.223 337.649C295.58 338.341 295.887 349.818 295.555 350.023C295.402 350.126 292.363 346.949 288.787 342.952C285.212 338.982 282.122 335.6 281.917 335.421C281.483 335.088 273.745 334.652 273.464 334.985Z" fill="white"/>
<path d="M302.144 335.241C301.633 335.625 302.093 336.24 303.089 336.497C304.723 336.906 304.672 336.548 304.672 346.616C304.672 356.735 304.774 356.12 302.961 356.837C302.093 357.196 301.71 357.76 302.169 358.042C302.323 358.144 306.358 358.221 311.133 358.195C317.926 358.17 319.867 358.093 320.021 357.837C320.301 357.401 321.272 353.738 321.272 353.2C321.272 352.534 320.455 352.329 320.148 352.867C318.233 356.12 317.85 356.351 314.198 356.351C311.593 356.351 311.312 356.299 311.057 355.838C310.903 355.531 310.827 353.84 310.852 351.432L310.929 347.512L313.151 347.436C315.628 347.359 315.653 347.384 316.522 349.178C316.803 349.818 317.237 350.33 317.416 350.33C317.722 350.33 317.799 349.716 317.824 346.872C317.824 344.976 317.799 343.26 317.748 343.08C317.543 342.414 316.905 342.824 316.42 343.9C315.807 345.335 315.322 345.591 313.253 345.591C310.648 345.591 310.801 345.822 310.801 341.492V337.675L311.516 337.137C312.104 336.65 312.461 336.599 314.172 336.676C316.573 336.778 317.262 337.214 318.361 339.34C319.127 340.852 319.791 341.338 320.072 340.621C320.225 340.211 319.586 335.369 319.357 335.113C319.05 334.831 302.552 334.959 302.144 335.241Z" fill="white"/>
<path d="M322.217 335.011C321.757 335.446 322.166 335.907 323.57 336.625C326.15 337.931 326.252 338.315 325.869 345.668C325.409 355.095 325.179 356.197 323.545 356.863C323.06 357.068 322.804 357.35 322.855 357.606C322.932 357.965 323.494 358.016 327.273 358.016C330.823 358.016 331.615 357.939 331.615 357.657C331.615 357.273 331.436 357.145 329.725 356.453C329.112 356.197 328.474 355.762 328.295 355.454C327.886 354.814 327.478 341.39 327.886 341.518C328.014 341.569 331.462 345.156 335.522 349.485C343.158 357.657 343.746 358.221 344.869 358.656C346.453 359.246 346.887 358.272 346.504 355.019C346.325 353.302 346.325 350.535 346.555 345.079C346.887 336.778 346.887 336.778 348.496 336.471C348.955 336.394 349.492 336.138 349.671 335.933C350.335 335.139 349.39 334.959 345.048 335.036C341.039 335.113 340.911 335.139 340.988 335.626C341.039 335.984 341.396 336.266 342.009 336.497C343.975 337.163 344.154 337.419 344.333 339.596C344.588 342.389 344.563 350.202 344.307 350.202C344.18 350.202 341.064 346.821 337.361 342.696L330.619 335.216L328.448 335.062C325.409 334.831 322.421 334.806 322.217 335.011Z" fill="white"/>
<path d="M167.889 335.446C167.685 335.984 167.94 336.292 168.732 336.497C169.14 336.573 169.702 336.83 170.034 337.035L170.596 337.393V346.59C170.596 356.786 170.698 356.248 168.859 356.889C168.323 357.068 168.042 357.35 168.042 357.657C168.042 357.913 168.119 358.144 168.246 358.144C168.349 358.17 172.435 358.195 177.364 358.221L186.276 358.272L186.506 357.247C186.608 356.684 186.94 355.224 187.247 353.994C187.528 352.764 187.681 351.637 187.579 351.509C187.221 350.92 186.659 351.278 186.072 352.482C184.54 355.505 183.569 356.095 180.071 356.095C177.721 356.095 177.491 356.043 177.134 355.531C176.776 355.044 176.725 353.738 176.725 346.488C176.725 337.035 176.648 337.419 178.538 336.497C179.151 336.215 179.662 335.805 179.662 335.6C179.662 335.036 168.093 334.883 167.889 335.446Z" fill="white"/>
<path d="M152.642 364.933C150.88 365.548 149.654 367.162 149.654 368.827C149.654 369.851 151.212 376.025 152.489 380.073C153.077 381.969 153.511 383.557 153.46 383.609C153.409 383.66 143.525 388.809 131.522 395.034C53.8347 435.383 23.9805 451.01 15.8082 455.545C13.3565 456.903 -7.87812e-06 465.305 0.102145 465.408C0.17876 465.51 16.1657 459.387 20.3029 457.671C30.4672 453.495 66.8082 438.252 134.842 409.637C148.965 403.719 160.534 398.98 160.585 399.108C160.789 399.722 164.339 405.487 166.203 408.228C172.409 417.399 180.581 426.186 188.932 432.719L189.801 433.385L182.829 445.272C179.024 451.804 172.46 462.974 168.297 470.096C149.833 501.581 136.272 525.073 133.233 530.811C132.033 533.091 130.45 536.499 128.177 541.75C127.921 542.365 127.743 542.852 127.794 542.852C128.151 542.852 136.017 533.757 138.954 529.966C145.568 521.435 162.628 498.558 195.955 453.572C200.042 448.064 203.515 443.427 203.694 443.222C203.974 442.889 204.638 443.145 208.316 444.939C219.425 450.319 230.56 453.675 242.333 455.16C245.321 455.519 245.934 455.673 245.934 456.031C245.934 457.85 249.892 596.112 251.042 634.181C252.344 677.22 252.472 680.14 253.34 687.16C253.774 690.567 254.183 693.385 254.234 693.462C254.31 693.513 254.362 693.462 254.362 693.334C254.362 693.206 254.719 690.439 255.128 687.211C255.562 683.958 256.022 679.346 256.149 676.964C256.788 666.178 261.282 563.039 265.471 463.051C265.547 461.206 265.675 458.773 265.752 457.645L265.905 455.545L267.973 455.365C279.312 454.392 294.508 449.857 305.362 444.221L308.247 442.736L311.389 447.014C355.289 506.423 367.752 523.126 374.494 531.58C376.664 534.321 384.02 542.596 384.249 542.596C384.581 542.596 379.984 532.451 378.044 528.916C372.936 519.514 361.75 500.172 340.119 463.435C323.826 435.742 322.472 433.436 322.6 433.359C334.45 423.701 343.031 413.915 349.747 402.387C350.871 400.465 351.892 398.903 351.994 398.877C352.097 398.877 364.227 403.975 378.937 410.175C448.172 439.456 479.405 452.573 491.025 457.261C496.618 459.516 509.106 463.64 509.413 463.333C509.54 463.205 499.708 457.133 496.567 455.417C489.263 451.42 453.509 432.719 388.259 398.749C372.068 390.321 358.813 383.327 358.813 383.173C358.813 383.045 359.324 381.354 359.937 379.433C360.55 377.511 361.418 374.36 361.878 372.413C362.644 369.237 362.695 368.801 362.414 367.828C362.006 366.47 360.729 365.189 359.452 364.83C358.711 364.625 329.597 364.548 256.022 364.548C169.957 364.574 153.46 364.625 152.642 364.933ZM358.915 368.289C359.145 368.494 359.324 368.776 359.324 368.904C359.324 369.672 357.077 377.819 355.978 381.047C355.263 383.122 354.778 384.941 354.906 385.043C355.008 385.146 362.593 389.142 371.71 393.881C380.853 398.646 392.575 404.744 397.785 407.459L407.259 412.403L418.598 420.14C428.482 426.903 431.24 428.825 430.193 428.287C429.682 428.005 351.024 394.804 350.692 394.727C350.513 394.676 349.568 396.059 348.445 398.108C341.651 410.303 332.381 421.267 321.527 429.901C319.918 431.182 318.514 432.309 318.386 432.411C318.284 432.514 319.484 434.768 321.042 437.458C323.724 442.018 324.311 443.325 331.513 460.463C335.701 470.48 339.098 478.678 339.072 478.729C339.021 478.755 335.446 473.99 331.104 468.098C315.551 447.039 309.218 438.585 309.039 438.585C308.962 438.585 307.507 439.328 305.821 440.251C293.691 446.835 280.206 450.908 265.981 452.24L262.661 452.547L262.585 453.572C262.559 454.136 261.844 470.736 261.001 490.462C260.159 510.189 259.112 535.115 258.652 545.875C258.192 556.635 257.733 565.217 257.63 564.961C257.554 564.704 255.894 549.743 253.978 531.708L250.48 498.917L249.867 478.038C249.535 466.561 249.228 456.134 249.203 454.853L249.126 452.573L244.912 452.112C231.786 450.703 220.319 447.296 208.393 441.224C203.438 438.714 203.157 438.611 202.749 439.021C202.493 439.277 195.726 448.346 187.707 459.208C179.662 470.045 172.92 479.114 172.716 479.319C172.409 479.652 172.384 479.626 172.588 479.062C173.456 476.834 186.557 445.733 187.043 444.759C187.375 444.119 189.111 441.096 190.873 438.073L194.091 432.565L193.274 431.925C180.275 421.857 170.877 411.02 163.649 397.801C162.781 396.213 162.041 394.855 161.989 394.804C161.964 394.752 160.049 395.47 157.776 396.443C142.938 402.643 82.31 428.159 82.1057 428.261C80.9054 428.927 83.9189 426.801 93.2148 420.448L104.069 413.044L125.648 401.823C149.782 389.296 157.393 385.299 157.546 385.146C157.597 385.094 156.984 383.122 156.218 380.765C154.788 376.538 152.974 369.877 152.974 368.904C152.974 368.647 153.179 368.289 153.434 368.161C153.715 367.981 187.17 367.904 256.2 367.879C348.879 367.879 358.558 367.904 358.915 368.289Z" fill="white"/>
<path d="M274.23 382.405C273.592 383.147 268.152 391.96 268.152 392.268C268.152 392.447 268.995 392.498 270.859 392.37L273.541 392.191L273.464 393.292C273.388 394.266 273.285 394.445 272.545 394.753C271.038 395.444 271.728 395.675 275.175 395.675C278.623 395.675 279.312 395.444 277.806 394.753C277.065 394.445 276.963 394.266 276.886 393.292L276.81 392.216H277.806C278.648 392.216 278.853 392.114 278.98 391.627C279.21 390.705 279.185 390.679 277.984 390.679H276.835V389.065C276.835 386.811 276.554 386.503 274.92 386.913L273.643 387.221L273.566 388.937L273.49 390.679H271.983C271.14 390.679 270.451 390.577 270.451 390.449C270.451 390.321 271.549 388.476 272.877 386.375C274.205 384.249 275.303 382.379 275.303 382.225C275.303 381.815 274.664 381.918 274.23 382.405Z" fill="white"/>
<path d="M237.736 382.738C236.612 383.327 235.463 384.633 235.463 385.325C235.463 386.017 235.948 385.914 236.996 385.043C238.119 384.07 239.575 383.993 240.162 384.838C240.75 385.684 240.673 387.528 239.958 389.014C239.626 389.706 238.426 391.345 237.276 392.626C236.153 393.933 235.208 395.163 235.208 395.393C235.208 395.777 235.668 395.803 239.447 395.752L243.687 395.675L244.274 393.805C244.938 391.678 244.708 391.217 243.661 392.498C242.971 393.318 242.895 393.344 240.494 393.446C239.115 393.497 238.017 393.472 238.017 393.395C238.017 393.292 238.987 392.268 240.162 391.115C242.512 388.835 243.355 387.375 243.38 385.658C243.38 384.454 242.563 383.045 241.592 382.558C240.673 382.097 238.783 382.174 237.736 382.738Z" fill="white"/>
<path d="M248.59 382.712C246.726 383.839 245.679 386.17 245.679 389.142C245.679 391.217 246.164 392.959 247.083 394.189C247.875 395.188 249.484 396.059 250.658 396.059C251.629 396.059 253.314 395.265 254.03 394.496C255.638 392.729 256.302 389.142 255.511 386.427C254.694 383.609 253.161 382.225 250.786 382.225C249.841 382.225 249.101 382.379 248.59 382.712ZM251.195 383.455C252.855 384.556 253.34 392.242 251.884 394.215C251.22 395.111 250.939 395.162 250.173 394.471C248.922 393.369 248.36 388.963 248.999 385.556C249.356 383.66 250.25 382.814 251.195 383.455Z" fill="white"/>
<path d="M260.312 382.763C259.061 383.378 257.937 384.582 257.937 385.325C257.937 385.914 258.524 385.966 258.984 385.402C259.903 384.3 261.895 383.942 262.61 384.736C263.249 385.428 263.172 387.682 262.508 389.065C262.227 389.68 261.001 391.269 259.801 392.626C258.448 394.163 257.682 395.188 257.784 395.444C257.911 395.752 258.601 395.803 262.049 395.752L266.186 395.675L266.773 393.805C267.412 391.678 267.182 391.217 266.109 392.498C265.42 393.344 265.369 393.369 263.07 393.446C261.793 393.497 260.746 393.472 260.746 393.369C260.746 393.241 261.717 392.165 262.866 390.961C265.317 388.399 266.007 387.042 265.777 385.12C265.675 384.147 265.471 383.737 264.73 383.071C263.964 382.353 263.632 382.225 262.61 382.225C261.87 382.225 260.95 382.456 260.312 382.763Z" fill="white"/>
<path d="M369.233 366.265C369.028 366.521 368.722 367.776 368.569 369.057C368.186 372.08 367.292 375.539 366.092 378.767C365.402 380.586 365.198 381.405 365.377 381.687C365.53 381.918 366.653 382.43 367.905 382.866C370.127 383.634 370.918 384.018 375.03 386.427C377.839 388.066 380.138 388.758 382.691 388.732C384.428 388.732 385.194 388.553 387.927 387.605C390.838 386.555 391.323 386.478 393.418 386.503C395.793 386.529 397.734 386.99 401.59 388.502C402.969 389.04 403.965 389.245 405.931 389.321C408.204 389.45 408.689 389.373 410.477 388.783C413.567 387.733 416.581 385.581 418.368 383.147C419.773 381.2 419.007 380.176 417.015 381.329C413.899 383.122 409.634 383.532 406.11 382.328C403.148 381.354 401.615 380.329 398.602 377.409C395.231 374.155 393.801 373.412 391.119 373.438C390.149 373.438 388.642 373.643 387.799 373.874C386.982 374.104 385.577 374.283 384.709 374.283C382.921 374.283 382.819 374.207 378.759 370.492C376.281 368.238 374.417 366.957 372.655 366.265C371.225 365.701 369.718 365.701 369.233 366.265ZM373.217 368.417C374.494 369.057 376.026 370.261 379.065 373.054C382.436 376.179 383.892 376.589 388.131 375.564C392.396 374.54 393.698 375.001 397.81 378.946C400.773 381.79 402.254 382.789 405.293 383.89C407.668 384.761 411.55 385.018 413.669 384.454C414.385 384.249 414.997 384.172 414.997 384.249C414.997 384.531 411.882 386.478 410.656 386.939C408.792 387.682 406.774 387.912 404.859 387.605C401.488 387.067 398.908 385.556 395.282 382.071C391.604 378.485 389.587 377.768 385.884 378.767C385.118 378.972 383.79 379.228 382.921 379.305C380.725 379.535 379.601 378.972 376.409 375.949C374.953 374.591 372.91 372.951 371.889 372.285L369.999 371.081L370.178 369.928C370.51 367.392 370.51 367.392 371.352 367.623C371.761 367.751 372.604 368.084 373.217 368.417Z" fill="white"/>
<path d="M139.695 367.008C138.571 367.238 136.4 367.341 132.927 367.29C128.534 367.238 127.589 367.315 126.21 367.725C123.886 368.417 121.971 369.775 119.647 372.336C116.455 375.821 114.437 376.82 108.87 377.639C107.031 377.896 104.886 378.357 104.094 378.639C100.749 379.919 98.0927 382.43 96.4071 385.914C95.2579 388.322 94.5684 391.243 94.977 392.114C95.4367 393.164 96.0751 392.857 97.2754 391.038C99.7782 387.221 103.839 385.248 109.176 385.248C111.296 385.248 112.139 385.376 114.156 386.017C120.362 387.964 122.482 387.682 126.236 384.326C129.224 381.687 130.169 381.482 134.587 382.712C139.592 384.121 142.095 384.351 144.521 383.609C146.437 383.045 146.59 382.533 145.619 379.971C144.598 377.255 143.576 373.156 143.168 369.98C142.708 366.393 142.708 366.367 139.695 367.008ZM135.353 377.101C137.83 377.793 140.384 378.28 142.478 378.434C143.27 378.51 143.372 378.613 143.934 380.176C144.266 381.072 144.47 381.892 144.394 381.969C144.317 382.046 143.193 382.123 141.916 382.174C139.848 382.251 139.056 382.123 135.481 381.226C133.233 380.637 130.986 380.176 130.501 380.176C129.173 380.176 127.283 381.175 125.087 383.045C121.767 385.889 120.056 386.145 115.05 384.505C108.998 382.558 102.511 383.557 98.4757 387.118C97.8373 387.682 97.301 388.092 97.301 387.989C97.301 387.4 99.1653 384.454 100.289 383.224C103.839 379.407 108.921 378.485 115.382 380.534C117.604 381.252 118.702 381.457 120.107 381.457C122.354 381.457 123.401 380.995 125.648 379.125C129.684 375.718 130.016 375.641 135.353 377.101Z" fill="white"/>
<path d="M156.346 411.789C153.306 413.992 150.038 415.734 145.568 417.527C139.822 419.807 136.936 421.524 134.204 424.342C131.369 427.262 130.067 429.824 128.381 435.819C126.951 440.814 125.495 443.35 122.048 446.681C119.826 448.807 118.421 449.858 114.284 452.496C112.598 453.547 110.555 455.032 109.738 455.775C103.507 461.36 100.927 470.48 102.919 479.882C103.507 482.649 104.247 484.16 105.014 484.186C105.473 484.186 105.984 483.289 105.984 482.495C105.984 481.061 106.725 477.807 107.567 475.63C110.045 469.174 116.378 463.512 124.091 460.848C124.831 460.592 127.487 460.079 129.964 459.695C132.442 459.336 135.149 458.875 135.991 458.67C138.571 458.004 141.125 456.621 142.708 455.032C144.445 453.29 145.16 452.112 146.692 448.525C149.629 441.608 150.497 440.942 158.593 439.482C166.433 438.073 170.136 436.946 173.048 435.024C174.861 433.872 176.725 431.873 176.725 431.156C176.725 430.823 175.627 429.517 173.712 427.621C168.936 422.83 165.054 417.911 161.632 412.352C160.534 410.533 160.074 409.995 159.589 409.944C159.129 409.893 158.21 410.405 156.346 411.789ZM172.537 428.825L175.014 431.259L173.814 432.36C172.281 433.744 169.115 435.306 166.127 436.152C164.875 436.51 161.657 437.202 158.976 437.689C153.409 438.714 152.132 439.047 150.574 439.969C148.863 440.968 147.714 442.505 146.054 446.015C143.27 451.856 142.938 452.419 141.482 453.828C138.928 456.262 136.962 456.979 130.169 457.953C125.342 458.645 123.401 459.131 120.617 460.387C112.649 463.973 106.903 470.429 105.065 477.884L104.605 479.703L104.35 478.678C104.222 478.114 104.094 475.809 104.094 473.554C104.12 468.789 104.528 466.842 106.265 463.205C107.542 460.566 109.815 458.183 113.135 455.955C117.732 452.906 120.49 451.907 126.593 451.01C129.096 450.626 131.829 450.165 132.672 449.96C136.758 448.91 139.873 446.45 141.533 442.941C142.044 441.89 143.04 439.79 143.73 438.304C145.313 434.973 146.769 433.282 148.837 432.36C149.782 431.925 152.081 431.361 155.298 430.772C162.602 429.44 166.816 428.21 168.936 426.801C169.37 426.519 169.779 426.314 169.881 426.366C169.957 426.391 171.158 427.518 172.537 428.825Z" fill="white"/>
<path d="M353.042 410.149C352.761 410.252 351.535 411.84 350.335 413.633C347.091 418.526 344.129 422.087 339.608 426.596C336.467 429.722 335.624 430.721 335.752 431.079C335.854 431.335 337.387 432.975 339.149 434.743C342.035 437.586 342.75 438.509 345.661 442.915C352.582 453.444 356.387 455.827 367.726 456.774C374.519 457.338 378.248 459.464 385.373 466.74C390.889 472.402 393.98 474.297 399.394 475.322C404.578 476.321 411.269 475.297 416.274 472.786C418.318 471.761 419.058 471.018 418.65 470.403C418.42 470.019 417.883 469.968 414.717 469.942C410.656 469.917 408.511 469.532 405.497 468.277C401.437 466.612 396.916 462.846 394.082 458.824C392.192 456.134 391.477 454.623 389.842 449.858C388.208 445.093 387.799 444.221 386.216 441.967C384.045 438.918 381.517 437.484 376.052 436.28C371.94 435.358 369.335 434.256 368.237 433.001C367.241 431.873 366.143 429.517 363.921 423.855C361.929 418.706 360.141 415.478 358.098 413.198C355.927 410.815 354.114 409.714 353.042 410.149ZM354.855 412.455C357.766 414.479 360.167 418.552 363.334 426.929C366.398 435.05 367.803 436.229 376.307 438.047C381.083 439.072 384.122 441.173 385.986 444.708C386.471 445.63 387.518 448.295 388.31 450.626C390.021 455.596 390.685 456.954 392.652 459.721C397.683 466.791 404.757 471.095 412.188 471.556L414.614 471.71L413.491 472.197C408.766 474.195 401.105 474.528 396.712 472.863C392.549 471.326 386.727 465.613 384.198 460.566C383.713 459.618 382.743 457.133 382.053 455.058C380.291 449.883 379.269 447.885 377.405 445.887C375.413 443.735 373.268 442.659 369.284 441.788C361.01 439.969 359.962 439.047 356.898 430.9C354.523 424.649 353.118 421.857 350.922 419.039C350.105 417.963 349.849 417.45 350.003 417.194C350.156 417.015 350.999 415.708 351.918 414.274C352.837 412.865 353.603 411.686 353.655 411.686C353.706 411.686 354.242 412.045 354.855 412.455Z" fill="white"/>
<path d="M205.405 450.934C205.124 451.267 204.358 453.009 203.668 454.853C202.034 459.362 200.374 462.564 197.743 466.458C191.512 475.604 189.979 478.294 188.626 482.418C186.557 488.695 186.813 493.819 189.596 502.58C191.92 509.856 192.099 514.057 190.363 521.051C189.545 524.33 188.422 527.327 186.302 531.836C183.391 538.01 182.344 542.109 182.344 547.207C182.344 555.123 185.536 563.039 191.435 569.879C193.58 572.364 196.926 575.131 197.769 575.131C199.046 575.131 199.02 574.593 197.692 571.775C195.343 566.831 194.347 562.629 194.347 557.583C194.347 550.768 196.645 543.621 200.961 537.037C202.978 534.014 204.434 532.425 208.776 528.634C216.412 521.947 218.787 518.668 219.783 513.442C220.293 510.727 220.242 509.471 219.349 504.168C218.71 500.3 218.582 498.891 218.659 496.483C218.787 491.872 218.812 491.846 227.036 483.674C233.956 476.782 235.335 475.297 237.174 472.53C240.188 468.021 241.643 462.974 240.315 461.642C239.754 461.078 239.83 461.104 235.719 460.361C227.342 458.824 217.918 455.724 209.312 451.676C207.78 450.959 206.401 450.37 206.222 450.37C206.069 450.37 205.686 450.626 205.405 450.934ZM234.697 461.898C236.868 462.334 238.783 462.718 238.936 462.795C239.473 462.974 238.809 465.792 237.659 468.175C235.489 472.735 232.577 476.116 223.179 485.083C217.816 490.206 216.948 491.923 216.973 497.38C216.973 499.839 217.152 501.683 217.663 504.45C218.429 508.6 218.531 511.47 217.995 513.775C216.922 518.258 214.777 521.179 208.393 526.712C202.059 532.22 199.352 535.602 196.517 541.443C192.125 550.563 191.435 559.325 194.449 568.265C195.726 572.108 195.598 572.159 192.763 568.829C188.371 563.654 185.587 558.172 184.54 552.587C184.029 549.923 184.029 548.411 184.54 545.388C185.408 540.239 187.655 534.782 190.873 529.915C192.993 526.738 194.73 524.868 198.816 521.358C205.507 515.62 207.856 512.674 209.133 508.447C210.078 505.347 210.078 503.349 209.159 497.918C207.831 489.95 208.061 486.671 210.18 483.494C210.64 482.828 212.632 480.702 214.624 478.832C223.409 470.429 226.474 466.894 228.593 462.846C229.487 461.104 229.717 460.848 230.177 460.976C230.483 461.053 232.526 461.463 234.697 461.898Z" fill="white"/>
<path d="M304.034 451.548C296.678 455.135 286.514 458.363 277.244 460.002C271.932 460.95 272.111 460.72 273.336 465.434C274.92 471.454 275.073 472.812 275.303 481.88C275.482 488.388 275.635 490.847 276.044 493.178C276.682 496.867 277.984 500.556 279.568 503.246C281.151 505.936 285.646 510.496 289.604 513.442C294.252 516.926 296.73 519.77 299.028 524.33C301.046 528.378 302.425 532.938 303.395 538.753C304.493 545.388 306.026 549.564 308.835 553.74C310.341 555.943 313.764 559.427 316.113 561.118C321.246 564.833 328.423 567.522 334.679 568.06C337.029 568.291 337.974 568.009 338.076 567.113C338.153 566.523 337.974 566.344 336.544 565.627C331.947 563.321 327.222 559.197 324.515 555.123C320.633 549.231 318.795 543.159 318.539 535.141C318.386 530.53 318.488 529.735 320.25 522.357C322.166 514.416 322.319 510.266 320.889 506.243C319.765 503.118 318.641 501.555 314.3 497.021C306.843 489.233 306.664 488.49 309.116 476.244C309.882 472.376 310.648 467.918 310.827 466.381C311.695 458.081 309.729 450.242 306.766 450.396C306.536 450.396 305.31 450.908 304.034 451.548ZM307.89 453.547C308.809 455.545 309.269 458.414 309.269 462.001C309.269 466.1 308.988 468.2 307.43 475.86C305.796 483.981 305.617 486.62 306.511 489.207C307.405 491.769 308.886 493.793 312.972 498.02C317.492 502.734 318.718 504.527 319.637 507.883C320.608 511.418 320.327 514.954 318.565 522.178C317.952 524.714 317.262 527.737 317.058 528.941C316.139 534.167 316.981 542.109 319.025 547.95C321.425 554.79 326.226 561.092 331.972 564.884C333.096 565.627 334.041 566.267 334.041 566.293C334.041 566.447 330.798 565.806 328.78 565.268C322.932 563.731 316.624 560.093 313.023 556.199C309.422 552.305 306.868 545.03 306.179 536.909C305.821 532.349 306.102 529.582 307.634 523.382C309.703 514.902 309.984 511.726 309.013 507.909C308.145 504.425 307.022 502.708 302.808 498.302C298.39 493.691 297.342 492.384 296.193 489.95C295.402 488.234 295.351 488.029 295.376 485.339C295.402 483.085 295.631 481.522 296.474 477.525C298.211 469.379 298.594 466.586 298.619 462.282C298.619 460.156 298.492 457.876 298.338 457.21C298.109 455.98 298.109 455.955 298.773 455.724C299.13 455.596 301.046 454.751 303.012 453.854C304.978 452.957 306.741 452.214 306.919 452.189C307.098 452.163 307.532 452.778 307.89 453.547Z" fill="white"/>
</svg>
