<svg width="500" height="446" viewBox="0 0 500 446" fill="none" xmlns="http://www.w3.org/2000/svg">
<path d="M-0.000173112 306.622L390.244 445.921L397.707 425.015L7.4624 285.716L-0.000173112 306.622Z" fill="#B3520C"/>
<path d="M205.072 348.397C158.004 306.84 102.066 277.563 40.3118 281.728L33.343 279.241L125.38 21.4013L132.349 23.8889C191.018 23.8776 254.195 46.4292 299.596 83.5887L205.072 348.397Z" fill="#EDEBDA"/>
<path d="M205.072 348.397C270.893 346.947 333.558 360.281 374.807 401.128L381.665 403.576L473.702 145.736L466.844 143.288C419.255 105.348 360.161 84.2541 299.596 83.5887L205.072 348.397Z" fill="#CEC9AE"/>
<path d="M473.704 145.737L381.667 403.577L374.809 401.129C333.554 360.28 270.896 346.949 205.074 348.398C157.999 306.839 102.068 277.564 40.3137 281.73L33.3449 279.242L125.382 21.4022L104.477 13.9401L7.46541 285.717L397.71 425.016L494.721 153.239L473.704 145.737Z" fill="#E56D16"/>
<path d="M237.885 124.413L175.167 102.026C171.32 100.653 169.31 96.4231 170.686 92.5694C172.061 88.7157 176.295 86.715 180.142 88.0882L242.86 110.476C246.707 111.849 248.717 116.078 247.341 119.932C245.966 123.786 241.732 125.786 237.885 124.413Z" fill="#CEC9AE"/>
<path d="M147.293 92.076C145.411 91.4043 143.92 90.0791 143.066 88.2894C142.215 86.4929 142.14 84.5018 142.812 82.6207C143.135 81.7145 143.667 80.8836 144.314 80.1718C144.986 79.3898 145.722 78.8673 146.598 78.3946C149.221 77.2092 152.536 77.6071 154.717 79.6426C155.499 80.3144 156.021 81.0509 156.494 81.9269C156.873 82.8474 157.087 83.7883 157.137 84.7488C157.186 85.7092 157.072 86.69 156.749 87.5955C156.077 89.4774 154.758 90.9703 152.962 91.8217C151.167 92.6651 149.174 92.7475 147.293 92.076Z" fill="#CEC9AE"/>
<path d="M225.448 159.256L134.855 126.919C131.008 125.546 128.998 121.316 130.374 117.463C131.75 113.609 135.984 111.608 139.83 112.981L230.423 145.319C234.269 146.692 236.279 150.921 234.904 154.775C233.528 158.629 229.294 160.629 225.448 159.256Z" fill="#CEC9AE"/>
<path d="M185.135 184.149L122.418 161.762C118.571 160.389 116.561 156.159 117.937 152.306C119.312 148.452 123.546 146.451 127.393 147.824L190.111 170.212C193.958 171.585 195.968 175.814 194.592 179.668C193.216 183.521 188.982 185.522 185.135 184.149Z" fill="#CEC9AE"/>
<path d="M213.01 194.099C211.128 193.427 209.638 192.102 208.784 190.313C207.933 188.516 207.858 186.525 208.529 184.644C209.176 182.832 210.592 181.287 212.316 180.418C215.884 178.784 220.484 180.426 222.211 183.95C222.996 185.715 223.113 187.807 222.466 189.619C221.794 191.501 220.476 192.993 218.679 193.845C216.885 194.689 214.891 194.771 213.01 194.099Z" fill="#CEC9AE"/>
<path d="M200.573 228.943L137.855 206.555C134.008 205.182 131.998 200.953 133.373 197.099C134.749 193.246 138.983 191.245 142.83 192.618L205.548 215.005C209.394 216.379 211.404 220.608 210.029 224.462C208.653 228.315 204.419 230.316 200.573 228.943Z" fill="#CEC9AE"/>
<path d="M109.98 196.606C108.098 195.934 106.608 194.609 105.754 192.819C104.903 191.023 104.828 189.031 105.5 187.15C105.823 186.244 106.355 185.413 107.002 184.701C107.674 183.919 108.41 183.397 109.286 182.924C112.785 181.266 117.454 182.933 119.182 186.456C119.56 187.377 119.799 188.249 119.824 189.278C119.874 190.239 119.759 191.22 119.436 192.125C118.765 194.007 117.446 195.5 115.65 196.351C114.729 196.73 113.788 196.944 112.828 196.994C111.867 197.043 110.886 196.929 109.98 196.606Z" fill="#CEC9AE"/>
<path d="M188.135 263.786L97.5428 231.449C93.696 230.075 91.686 225.846 93.0615 221.992C94.4371 218.139 98.671 216.138 102.518 217.511L193.11 249.848C196.957 251.222 198.967 255.451 197.591 259.305C196.216 263.158 191.982 265.159 188.135 263.786Z" fill="#CEC9AE"/>
<path d="M371.789 211.493L309.071 189.106C305.224 187.733 303.214 183.503 304.59 179.65C305.965 175.796 310.199 173.795 314.046 175.168L376.764 197.556C380.611 198.929 382.621 203.158 381.245 207.012C379.87 210.866 375.636 212.866 371.789 211.493Z" fill="#EDEBDA"/>
<path d="M406.632 223.931C404.75 223.259 403.259 221.934 402.406 220.144C402.03 219.217 401.813 218.283 401.763 217.322C401.643 216.337 401.828 215.381 402.151 214.475C402.798 212.664 404.214 211.119 405.938 210.249C406.858 209.871 407.799 209.657 408.76 209.607C411.736 209.412 414.579 211.134 415.833 213.782C416.618 215.546 416.735 217.638 416.088 219.45C415.764 220.356 415.302 221.212 414.586 221.899C413.939 222.611 413.18 223.197 412.301 223.676C410.506 224.521 408.514 224.602 406.632 223.931Z" fill="#EDEBDA"/>
<path d="M419.069 189.088L321.508 154.263C317.661 152.89 315.651 148.66 317.027 144.807C318.402 140.953 322.636 138.952 326.483 140.325L424.044 175.15C427.891 176.523 429.901 180.753 428.525 184.606C427.15 188.46 422.916 190.461 419.069 189.088Z" fill="#EDEBDA"/>
<path d="M369.319 328.46L299.633 303.585C295.786 302.212 293.776 297.983 295.151 294.129C296.527 290.275 300.761 288.275 304.608 289.648L374.294 314.523C378.141 315.896 380.151 320.126 378.776 323.979C377.4 327.833 373.166 329.834 369.319 328.46Z" fill="#EDEBDA"/>
<path d="M271.758 293.636C270.852 293.312 270.021 292.78 269.309 292.133C268.598 291.487 268.005 290.725 267.532 289.849C266.681 288.053 266.606 286.062 267.278 284.18C267.924 282.369 269.34 280.824 271.064 279.954C274.563 278.296 279.232 279.963 280.96 283.487C281.744 285.251 281.861 287.343 281.214 289.155C280.543 291.037 279.224 292.53 277.428 293.381C276.507 293.76 275.566 293.974 274.606 294.024C273.645 294.074 272.665 293.959 271.758 293.636Z" fill="#EDEBDA"/>
<path d="M346.914 281.18L284.196 258.793C280.349 257.419 278.339 253.19 279.715 249.336C281.09 245.483 285.324 243.482 289.171 244.855L351.889 267.243C355.736 268.616 357.746 272.845 356.37 276.699C354.995 280.553 350.761 282.553 346.914 281.18Z" fill="#EDEBDA"/>
<path d="M381.757 293.617C379.875 292.946 378.384 291.621 377.531 289.831C376.679 288.034 376.605 286.043 377.276 284.162C377.6 283.256 378.132 282.425 378.778 281.713C379.425 281.001 380.187 280.409 381.063 279.936C383.71 278.681 387.001 279.149 389.181 281.184C389.893 281.831 390.486 282.592 390.958 283.468C391.337 284.389 391.551 285.33 391.601 286.29C391.721 287.276 391.536 288.232 391.213 289.137C390.889 290.043 390.427 290.899 389.711 291.586C389.064 292.298 388.305 292.884 387.426 293.363C385.632 294.207 383.639 294.289 381.757 293.617Z" fill="#EDEBDA"/>
<path d="M394.194 258.774L296.633 223.949C292.787 222.576 290.777 218.346 292.152 214.493C293.528 210.639 297.762 208.638 301.608 210.011L399.169 244.836C403.016 246.209 405.026 250.439 403.651 254.293C402.275 258.146 398.041 260.147 394.194 258.774Z" fill="#EDEBDA"/>
</svg>
