<svg xmlns="http://www.w3.org/2000/svg" xmlns:xlink="http://www.w3.org/1999/xlink" version="1.1" width="510.236" height="552.756" viewBox="0 0 510.236 552.756">
<defs>
<clipPath id="clip_0">
<path transform="matrix(1,0,0,-1,0,552.756)" d="M0 552.756H510.236V0H0Z"/>
</clipPath>
<path id="font_1_50" d="M.49899293 .20817566C.49899293 .457016 .1789856 .3850708 .1789856 .5129852 .1789856 .55895999 .22399903 .5729523 .2619934 .5729523 .33099366 .5729523 .3769989 .56095889 .43998719 .5339813L.47099305 .6719513C.40899659 .6949463 .34700013 .70996096 .2809906 .70996096 .1519928 .70996096 .034988405 .6399536 .034988405 .49899293 .034988405 .262146 .34999085 .32510377 .34999085 .19418335 .34999085 .13621521 .2979889 .1282196 .2519989 .1282196 .1789856 .1282196 .12298584 .1512146 .057998659 .17919922L.036987306 .032226564C.10398865 .0052337648 .17098999-.009765625 .24398804-.009765625 .375-.009765625 .49899293 .06523132 .49899293 .20817566Z"/>
<path id="font_1_82" d="M.36799623 .028289795V.1452179C.32798768 .1272583 .28599549 .108291629 .24198914 .108291629 .23098755 .108291629 .22399903 .11627197 .22399903 .1272583 .22399903 .21505738 .22499085 .30384828 .22499085 .39164735H.32798768V.51464846H.22499085V.64964297H.117996219C.11199951 .6046448 .10398865 .5596466 .09599304 .51464846H.008987427V.39164735H.09298706C.09399414 .29785157 .09399414 .20307923 .09399414 .108291629 .09399414 .031295778 .13699341-.0126953129 .21398926-.0126953129 .2679901-.0126953129 .32099916 .0023040772 .36799623 .028289795Z"/>
<path id="font_1_80" d="M.3659973 .49552918C.33898927 .5095215 .30799867 .51953127 .2769928 .51953127 .23498535 .51953127 .19499207 .5025177 .1599884 .4805298L.15098572 .51452639H.049987794V0H.18199158V.2427063C.18199158 .30163575 .18998719 .39352418 .2679901 .39352418 .29499818 .39352418 .32699586 .37454225 .34999085 .36157228L.3659973 .49552918Z"/>
<path id="font_1_119" d="M.47499085 .6329956C.47499085 .673996 .44198609 .7080078 .3999939 .7080078 .35899354 .7080078 .32598878 .673996 .32598878 .6329956 .32598878 .59199526 .35899354 .55799868 .3999939 .55799868 .44198609 .55799868 .47499085 .59199526 .47499085 .6329956M.2669983 .6329956C.2669983 .673996 .23399353 .7080078 .19198609 .7080078 .15098572 .7080078 .117996219 .673996 .117996219 .6329956 .117996219 .59199526 .15098572 .55799868 .19198609 .55799868 .23399353 .55799868 .2669983 .59199526 .2669983 .6329956M.5589905 .27127076C.5589905 .42326356 .45098878 .53027346 .2999878 .53027346 .1269989 .53027346 .024993897 .41625978 .024993897 .24726868 .024993897 .09527588 .1329956-.01171875 .2849884-.01171875 .45700074-.01171875 .5589905 .10227966 .5589905 .27127076M.4189911 .26327516C.4189911 .18026734 .3849945 .10827637 .2899933 .10827637 .20298767 .10827637 .16499329 .17527771 .16499329 .25427247 .16499329 .3382721 .19898987 .40927125 .2939911 .40927125 .3809967 .40927125 .4189911 .34326173 .4189911 .26327516Z"/>
<path id="font_1_75" d="M.798996 0V.33537293C.798996 .4594574 .7279968 .52246096 .6069946 .52246096 .57099917 .52246096 .5189972 .5144501 .48799134 .49545289 .47399903 .4864502 .46099855 .4754486 .44898988 .46444703 .40699769 .50645449 .35699464 .52246096 .2979889 .52246096 .24899292 .52246096 .20098877 .5054474 .1579895 .4824524L.147995 .5144501H.049987794V0H.18199158V.24926758C.18199158 .31636048 .19198609 .39845277 .27799989 .39845277 .34700013 .39845277 .35798646 .3604126 .35798646 .30033876V0H.48999024V.24926758C.48999024 .31636048 .5 .39845277 .58599856 .39845277 .6549988 .39845277 .6669922 .3604126 .6669922 .30033876V0H.798996Z"/>
<path id="font_1_67" d="M.35699464 .32910157H.17199707C.18899536 .37825013 .21798706 .4133606 .27198792 .4133606 .32099916 .4133606 .34700013 .37322999 .35699464 .32910157M.49499513 .19013977C.43798829 .1532135 .37998963 .11328125 .30999757 .11328125 .23199463 .11328125 .18798828 .14422608 .17098999 .22109986H.48098756C.48199464 .24609375 .48399354 .27108766 .48399354 .2960968 .48399354 .4383545 .43299867 .5263672 .27999879 .5263672 .115997318 .5263672 .024993897 .4173584 .024993897 .25808717 .024993897 .09927368 .11999512-.01171875 .2829895-.01171875 .35299684-.01171875 .4229889 .0062713625 .48298646 .044281007L.49499513 .19013977Z"/>
<path id="font_1_76" d="M.5059967 .31828309C.5059967 .44335938 .43699647 .5263672 .30899049 .5263672 .24499512 .5263672 .20799256 .50935366 .1579895 .47035218L.14898682 .5153656H.049987794V0H.18199158V.24821472C.18199158 .33129884 .19198609 .3983612 .29299928 .3983612 .36799623 .3983612 .37399293 .3413086 .37399293 .28125V0H.5059967V.31828309Z"/>
</defs>
<g id="layer_1" data-name="Lager 1">
<g clip-path="url(#clip_0)">
<use data-text="S" xlink:href="#font_1_50" transform="matrix(96,0,0,-96,32.7148,449.8903)" fill="#2c292a"/>
<use data-text="t" xlink:href="#font_1_82" transform="matrix(96,0,0,-96,82.05881,449.8903)" fill="#2c292a"/>
<use data-text="r" xlink:href="#font_1_80" transform="matrix(96,0,0,-96,118.82681,449.8903)" fill="#2c292a"/>
<use data-text="&#x00f6;" xlink:href="#font_1_119" transform="matrix(96,0,0,-96,153.48282,449.8903)" fill="#2c292a"/>
<use data-text="m" xlink:href="#font_1_75" transform="matrix(96,0,0,-96,209.54682,449.8903)" fill="#2c292a"/>
<use data-text="m" xlink:href="#font_1_75" transform="matrix(96,0,0,-96,291.0508,449.8903)" fill="#2c292a"/>
<use data-text="e" xlink:href="#font_1_67" transform="matrix(96,0,0,-96,372.5548,449.8903)" fill="#2c292a"/>
<use data-text="n" xlink:href="#font_1_76" transform="matrix(96,0,0,-96,423.9148,449.8903)" fill="#2c292a"/>
<path transform="matrix(1,0,0,-1,249.9443,283.63688)" d="M0 0H19.01V-11.051H19.24C23.404-2.37 31.723 1.448 41.193 1.448 57.646 1.448 64.254-10.125 64.254-22.641V-60.338H43.391V-31.106C43.391-19.742 39.461-15.912 33.801-15.912 25.254-15.912 20.863-21.827 20.863-34.826V-60.338H0Z" fill="#ed272d"/>
<path transform="matrix(1,0,0,-1,382.8096,343.96107)" d="M0 0C-.924 4.762-1.152 9.519-1.152 14.263V36.612C-1.152 55.193-14.453 61.783-29.809 61.783-38.688 61.783-46.426 60.514-53.828 57.503L-53.77 43.306C-47.986 46.611-40.994 47.907-34.307 47.907-26.809 47.907-20.701 45.663-20.586 37.308-23.24 37.771-26.926 38.119-30.273 38.119-41.338 38.119-61.346 35.92-61.346 17.595-61.346 4.425-50.705-1.476-38.791-1.476-30.309-1.385-24.523 1.972-19.775 9.495H-19.545C-19.545 6.387-19.197 3.25-19.08 0ZM-47.561 69.214H-32.809003V83.966999H-47.561ZM-25.377 69.214H-10.623001V83.966999H-25.377ZM-41.916 19.013C-41.916 24.811-36.381 27.014-29.348 27.014-26.234 27.014-23.24 26.783-20.586 26.665-20.586 19.593-25.543 12.403-33.381 12.403-38.225 12.403-41.916 14.841-41.916 19.013" fill="#ed272d"/>
<path transform="matrix(1,0,0,-1,435.1592,300.2433)" d="M0 0C-2.313 .694-4.625 .694-7.059 .694-16.781 .694-22.221-6.368-22.221-18.22V-43.731H-43.086V16.606H-24.078V5.556H-23.846C-20.256 13.195-15.047 18.055-6.018 18.055-3.586 18.055-1.039 17.709 1.045 17.361Z" fill="#ed272d"/>
<path transform="matrix(1,0,0,-1,498.3506,343.96107)" d="M0 0C-.926 4.762-1.156 9.519-1.156 14.263V36.612C-1.156 55.193-14.459 61.783-29.813 61.783-38.688 61.783-46.43 60.514-53.83 57.506L-53.771 43.306C-47.99 46.611-40.996 47.907-34.309 47.907-26.813 47.907-20.705 45.665-20.586 37.308-23.24 37.771-26.932 38.119-30.273 38.119-41.34 38.119-61.348 35.92-61.348 17.595-61.348 4.425-50.705-1.476-38.791-1.476-30.309-1.385-24.523 1.972-19.779 9.495H-19.545C-19.545 6.387-19.199 3.25-19.084 0ZM-41.918 19.013C-41.918 24.811-36.383 27.014-29.35 27.014-26.236 27.014-23.24 26.783-20.586 26.665-20.586 19.593-25.543 12.403-33.383 12.403-38.227 12.403-41.918 14.841-41.918 19.013" fill="#ed272d"/>
<path transform="matrix(1,0,0,-1,0,552.756)" d="M11.643 269.127H230.85301V208.79302H11.643Z" fill="#ed272d" fill-rule="evenodd"/>
<path transform="matrix(1,0,0,-1,497.2686,253.59098)" d="M0 0-67.49-.008-83.74 27.234H-152.705L-127.639 70.118H-107.502L-135.959 121.888C-162.945 78.259-182.641 16.633-240.215 1.566-283.621-11.93-332.424-2.708-364.36 29.003-397.87 62.739-411.14 113.342-394.497 159.219-381.004 201.279-338.272 234.338-295.316 239.511-276.874 241.985-257.532 240.538-241.34 234.916-241.34 234.916-221.875 228.063-215.713 224.443L-246.738 172.041C-262.256 183.061-285.871 183.061-303.411 176.312-326.352 167.093-341.645 143.255-341.645 118.739-341.645 95.124-328.377 73.534-307.236 62.063-288.568 52.617-261.58 53.519-244.488 65.213-235.492 70.835-228.52 80.282-222.898 89.054L-136.086 244.459Z" fill="#ed272d"/>
<path transform="matrix(1,0,0,-1,71.9395,253.6388)" d="M0 0-60.311 .048V237.65H0Z" fill="#ed272d"/>
</g>
</g>
</svg>
